<svg id="canvas" width="756" height="791" viewBox="0 0 756 791" fill="none" xmlns="http://www.w3.org/2000/svg">
<g id="main">
<rect width="756" height="791" fill="#F5F5F5"/>
<g id="nodes">
<circle id="node-1" cx="47" cy="358" r="2" fill="#FF61E2"/>
<circle id="node-4" cx="47" cy="587" r="2" fill="#FF61E2"/>
<circle id="node-2" cx="167" cy="360" r="2" fill="#FF61E2"/>
<circle id="node-3" cx="175" cy="402" r="2" fill="#FF61E2"/>
</g>
<rect id="background" width="756" height="791" fill="white"/>
<g id="staff_parking">
<path id="staff_parking_g" d="M66 550V544H103V545H104V564H110V572H117V596H110V602H57V595H64V558H57V550H66Z" fill="#CACFD4" stroke="#6C6DAE"/>
<path id="staff_parking_c" d="M147.5 562.5H135.5V583.5H151.5V581.5H154.5V580.5H161.5V589.5H195.5V595.5H203.5V591.5H232.5V578.5H233.5V572.5H227.5V560.5L229.5 558.5H234.5V562.5H280.5V556.5H282.5L284.5 558.5H285.5V545.5H284.5L283.5 546.5L282.5 547.5H278.5V550.5H231.5V547.5H230.5L221.5 556.5V565.5H215.5V573.5H213.5V570.5H178.5V578.5H170.5V570.5H151.5V573.5H143.5V571.5H147.5V562.5Z" fill="#CACFD4" stroke="#6C6DAE"/>
<g id="staff_parking_f">
<path d="M161.5 590.5H194.5V595.5H204.5V591.5H234.5V578.5H264.5V655L212.5 681L213 682L214 684L205.5 689L203.5 685.5L174.5 701.5H172.5H167.5L163.5 697.5V678.5H161.5V590.5Z" fill="#CACFD4"/>
<path d="M212.5 681L213 682L214 684L205.5 689L203.5 685.5M212.5 681L209 672.5M212.5 681L264.5 655V578.5H234.5V591.5H204.5V595.5H194.5V590.5H161.5V678.5H163.5V697.5L167.5 701.5H172.5H174.5L203.5 685.5M203.5 685.5L199 674M199 674L195 604V604.5L199 674ZM209 672.5L204 604.5V604L209 672.5Z" stroke="#6C6DAE"/>
</g>
<path id="staff_parking_k" d="M239.5 231.5H232.5V246.5L237.5 251.5H249.5V254.5H250.5H304.5L310.5 248.5H314.5V239.5L313.5 238.5V231.5H312.5V230.5H291.5V231.5H272.5L271.5 232.5H253.5L252.5 233.5H239.5V231.5Z" fill="#CACFD4" stroke="#6C6DAE"/>
</g>
<g id="landmarks">
<circle id="LM_water_tower" cx="368" cy="180" r="22.5" fill="#F6F6F6" stroke="#6C6DAE"/>
</g>
<g id="labels">
<path id="WATER TOWER" d="M352.202 177L350.213 169.727H351.108L352.628 175.651H352.699L354.247 169.727H355.241L356.79 175.651H356.861L358.381 169.727H359.276L357.287 177H356.378L354.773 171.205H354.716L353.111 177H352.202ZM360.105 177H359.181L361.852 169.727H362.761L365.431 177H364.508L362.335 170.878H362.278L360.105 177ZM360.446 174.159H364.167V174.94H360.446V174.159ZM365.317 170.509V169.727H370.771V170.509H368.485V177H367.604V170.509H365.317ZM372.131 177V169.727H376.52V170.509H373.011V172.966H376.293V173.747H373.011V176.219H376.577V177H372.131ZM378.107 177V169.727H380.565C381.133 169.727 381.599 169.824 381.964 170.018C382.328 170.21 382.598 170.474 382.773 170.81C382.949 171.147 383.036 171.529 383.036 171.957C383.036 172.386 382.949 172.766 382.773 173.097C382.598 173.429 382.33 173.689 381.967 173.879C381.605 174.066 381.142 174.159 380.579 174.159H378.59V173.364H380.55C380.939 173.364 381.251 173.307 381.488 173.193C381.727 173.08 381.9 172.919 382.006 172.71C382.115 172.5 382.17 172.249 382.17 171.957C382.17 171.666 382.115 171.412 382.006 171.194C381.897 170.976 381.723 170.808 381.484 170.69C381.245 170.569 380.929 170.509 380.536 170.509H378.988V177H378.107ZM381.531 173.733L383.32 177H382.298L380.536 173.733H381.531ZM350.483 182.509V181.727H355.938V182.509H353.651V189H352.77V182.509H350.483ZM363.13 185.364C363.13 186.131 362.992 186.794 362.715 187.352C362.438 187.911 362.058 188.342 361.575 188.645C361.092 188.948 360.54 189.099 359.92 189.099C359.3 189.099 358.748 188.948 358.265 188.645C357.782 188.342 357.402 187.911 357.125 187.352C356.848 186.794 356.71 186.131 356.71 185.364C356.71 184.597 356.848 183.934 357.125 183.375C357.402 182.816 357.782 182.385 358.265 182.082C358.748 181.779 359.3 181.628 359.92 181.628C360.54 181.628 361.092 181.779 361.575 182.082C362.058 182.385 362.438 182.816 362.715 183.375C362.992 183.934 363.13 184.597 363.13 185.364ZM362.278 185.364C362.278 184.734 362.173 184.202 361.962 183.769C361.754 183.336 361.471 183.008 361.113 182.786C360.758 182.563 360.36 182.452 359.92 182.452C359.48 182.452 359.081 182.563 358.723 182.786C358.368 183.008 358.085 183.336 357.875 183.769C357.666 184.202 357.562 184.734 357.562 185.364C357.562 185.993 357.666 186.525 357.875 186.958C358.085 187.391 358.368 187.719 358.723 187.942C359.081 188.164 359.48 188.276 359.92 188.276C360.36 188.276 360.758 188.164 361.113 187.942C361.471 187.719 361.754 187.391 361.962 186.958C362.173 186.525 362.278 185.993 362.278 185.364ZM365.932 189L363.944 181.727H364.838L366.358 187.651H366.429L367.978 181.727H368.972L370.52 187.651H370.591L372.111 181.727H373.006L371.017 189H370.108L368.503 183.205H368.446L366.841 189H365.932ZM374.103 189V181.727H378.493V182.509H374.984V184.966H378.265V185.747H374.984V188.219H378.549V189H374.103ZM380.08 189V181.727H382.537C383.105 181.727 383.572 181.824 383.936 182.018C384.301 182.21 384.571 182.474 384.746 182.81C384.921 183.147 385.009 183.529 385.009 183.957C385.009 184.386 384.921 184.766 384.746 185.097C384.571 185.429 384.302 185.689 383.94 185.879C383.578 186.066 383.115 186.159 382.551 186.159H380.563V185.364H382.523C382.911 185.364 383.224 185.307 383.461 185.193C383.7 185.08 383.873 184.919 383.979 184.71C384.088 184.5 384.142 184.249 384.142 183.957C384.142 183.666 384.088 183.412 383.979 183.194C383.87 182.976 383.696 182.808 383.457 182.69C383.218 182.569 382.902 182.509 382.509 182.509H380.961V189H380.08ZM383.503 185.733L385.293 189H384.27L382.509 185.733H383.503Z" fill="black"/>
</g>
<g id="ev_labels">
<g id="ev_label_2">
<path d="M456 198H445V208H456V198Z" fill="#22B358"/>
<path d="M445.924 206V200.182H449.845V201.196H447.154V202.582H449.643V203.597H447.154V204.986H449.856V206H445.924Z" fill="white"/>
<path d="M451.154 200.182L452.56 204.602H452.614L454.023 200.182H455.387L453.381 206H451.796L449.787 200.182H451.154Z" fill="white"/>
</g>
<g id="ev_label_1">
<path d="M182 682H171V692H182V682Z" fill="#22B358"/>
<path d="M171.924 690V684.182H175.845V685.196H173.154V686.582H175.643V687.597H173.154V688.986H175.856V690H171.924Z" fill="white"/>
<path d="M177.154 684.182L178.56 688.602H178.614L180.023 684.182H181.387L179.381 690H177.796L175.787 684.182H177.154Z" fill="white"/>
</g>
</g>
<g id="athletic_fields">
<g id="Baseball_field">
<path d="M306 596L307 467H311V443L321 433H347V425H345V420H406L439 481C443 478.5 450.553 472.949 452 474.5C459 482 466 528.5 466 551H465V552L378 600H310L306 596Z" fill="#22B358"/>
<path d="M337 457C337 458.657 335.657 460 334 460C332.343 460 331 458.657 331 457C331 455.343 332.343 454 334 454C335.657 454 337 455.343 337 457Z" fill="#EAC280"/>
<path d="M326 443.5C326 445.985 323.985 448 321.5 448C319.015 448 317 445.985 317 443.5C317 441.015 319.015 439 321.5 439C323.985 439 326 441.015 326 443.5Z" fill="#EAC280"/>
<path fill-rule="evenodd" clip-rule="evenodd" d="M359.475 441.842C364.018 455.472 361.768 468.544 354.5 476.769C347.21 485.018 334.975 488.276 319.821 482.467L319.5 482.344V441.5H359.36L359.475 441.842ZM322.5 444.5V467.268L325.849 469.5H345.268L347.5 466.151V446.793L345.207 444.5H322.5Z" fill="#EAC280"/>
<path d="M321.248 583.507C322.283 583.507 323.122 584.346 323.122 585.381C323.122 586.416 322.283 587.255 321.248 587.255C320.212 587.255 319.373 586.416 319.373 585.381C319.373 584.346 320.212 583.507 321.248 583.507Z" fill="#EAC280"/>
<path d="M312.812 590.378C314.365 590.378 315.624 591.637 315.624 593.189C315.624 594.741 314.365 596 312.812 596C311.259 596 310 594.741 310 593.189C310 591.637 311.259 590.378 312.812 590.378Z" fill="#EAC280"/>
<path fill-rule="evenodd" clip-rule="evenodd" d="M311.776 569.468C320.293 566.63 328.461 568.035 333.601 572.575C338.755 577.129 340.791 584.772 337.161 594.238L337.085 594.438H311.562V569.539L311.776 569.468ZM313.437 592.564H327.664L329.059 590.473V578.342L326.966 576.948H314.87L313.437 578.38V592.564Z" fill="#EAC280"/>
</g>
<g id="football_stadium">
<path id="track_field_base" d="M596 381L478 440C461.167 405.333 427.1 335.2 425.5 332C423.5 328 421 313.5 426.5 292.5C431.345 274 462.5 236.5 510.5 252C535.95 260.218 540.5 270.667 546 279L596 381Z" fill="white" stroke="black" stroke-width="0.5"/>
<path id="track_grass" d="M512.609 435.283L456.913 321.75C456.913 321.75 449.825 295.376 475.141 284.915C500.458 274.454 516.154 295.512 516.154 295.512L570.331 408.035C570.331 408.035 576.037 430.237 554.128 442.852C532.22 455.467 512.609 435.283 512.609 435.283Z" fill="#3A9452" stroke="black" stroke-opacity="0.06"/>
<path id="Subtract" fill-rule="evenodd" clip-rule="evenodd" d="M488.5 272C503.499 271 517.999 280.5 525 291L588 422L580 427L578 425C567.5 452 549.333 456 539.5 456.5C522 456.5 507.999 444.5 500.5 433L448 324.5C445.5 318.999 446.5 302.999 456 288.5C457.838 285.694 467.398 273.407 488.5 272ZM505.87 286.927C498.764 282.947 488.477 280.285 475.809 285.538C463.122 290.798 458.531 300.087 457.132 308.051C456.435 312.022 456.531 315.661 456.799 318.304C456.934 319.627 457.112 320.704 457.257 321.452C457.33 321.826 457.394 322.118 457.441 322.317C457.464 322.416 457.483 322.493 457.496 322.546C457.502 322.572 457.508 322.592 457.511 322.606C457.513 322.613 457.514 322.619 457.515 322.623C457.516 322.624 457.517 322.626 457.517 322.627V322.629L457.53 322.676L512.551 435.219L512.585 435.291L512.641 435.347L513 435L512.641 435.348L512.642 435.349C512.643 435.35 512.645 435.351 512.646 435.352C512.649 435.355 512.653 435.359 512.658 435.364C512.668 435.374 512.682 435.39 512.702 435.41C512.741 435.449 512.798 435.506 512.874 435.579C513.024 435.726 513.248 435.939 513.538 436.204C514.118 436.734 514.968 437.475 516.056 438.324C518.232 440.021 521.363 442.153 525.18 443.892C532.82 447.373 543.25 449.288 554.251 442.932C565.214 436.598 569.287 427.835 570.605 420.652C571.262 417.068 571.234 413.881 571.041 411.591C570.944 410.445 570.806 409.521 570.692 408.882C570.635 408.562 570.584 408.312 570.546 408.142C570.528 408.058 570.513 407.992 570.502 407.947C570.497 407.925 570.493 407.907 570.49 407.895C570.488 407.89 570.487 407.885 570.486 407.882C570.486 407.88 570.485 407.879 570.485 407.878V407.877C570.484 407.876 570.471 407.879 570.001 408L570.485 407.876L570.472 407.828L570.451 407.783L516.951 296.283L516.93 296.24L516.902 296.202L516.501 296.5C516.872 296.224 516.899 296.203 516.901 296.201L516.9 296.2C516.899 296.199 516.899 296.197 516.898 296.196C516.896 296.193 516.892 296.189 516.888 296.183C516.88 296.172 516.867 296.156 516.851 296.136C516.819 296.094 516.773 296.034 516.711 295.957C516.588 295.802 516.405 295.578 516.165 295.298C515.683 294.737 514.97 293.951 514.037 293.043C512.17 291.226 509.416 288.913 505.87 286.927Z" fill="#F7DBB6"/>
</g>
<g id="tennis_courts">
<path id="tennis_court1" d="M563 306L575 300L579.5 309L567.5 315L563 306Z" fill="#F48782" stroke="#F8C0B9" stroke-width="0.5"/>
<path id="tennis_court2" d="M585.5 342.5L574.5 321L584 316L595 337.5L585.5 342.5Z" fill="#F48782" stroke="#F8C0B9" stroke-width="0.5"/>
<path id="tennis_court3" d="M599 372.5L588 351L597.5 346L608.5 367.5L599 372.5Z" fill="#F48782" stroke="#F8C0B9" stroke-width="0.5"/>
<path id="tennis_court4" d="M611 366.5L600 345L609.5 340L620.5 361.5L611 366.5Z" fill="#F48782" stroke="#F8C0B9" stroke-width="0.5"/>
<path id="tennis_court5" d="M619 419.5L608 398L617.5 393L628.5 414.5L619 419.5Z" fill="#F48782" stroke="#F8C0B9" stroke-width="0.5"/>
<path id="tennis_court6" d="M631 413.5L620 392L629.5 387L640.5 408.5L631 413.5Z" fill="#F48782" stroke="#F8C0B9" stroke-width="0.5"/>
<path id="tennis_court7" d="M635 453.5L624 432L633.5 427L644.5 448.5L635 453.5Z" fill="#F48782" stroke="#F8C0B9" stroke-width="0.5"/>
<path id="tennis_court8" d="M648 446.5L637 425L646.5 420L657.5 441.5L648 446.5Z" fill="#F48782" stroke="#F8C0B9" stroke-width="0.5"/>
</g>
</g>
<g id="student_visitor_parking">
<path id="student_visitor_parking_wlot" d="M352 251V227L397 226L395.5 302L399 345H391V347H400L403 358H383L379 352.5V339H378V347L376 349H334L329 251H352Z" fill="#CACFD4"/>
<path id="stduent_visitor_parking_elot" d="M620 328C606.065 302.362 588.678 288.457 540.5 264.5L562.5 303.5L577.5 296L599 338L620 328Z" fill="#CACFD4"/>
</g>
<g id="grass_layers">
<path id="grass1" d="M133.5 510.5H128.5V523.5H133.5V510.5Z" fill="#9DD3AB" stroke="#7780B1" stroke-opacity="0.7"/>
<path id="grass2" d="M133.5 465.5H128.5V503.5H133.5V465.5Z" fill="#9DD3AB" stroke="#7780B1" stroke-opacity="0.7"/>
<path id="grass3" d="M135.5 499.5V465.5H138.5L148.5 482.5V486.5L137.5 500.5L135.5 499.5Z" fill="#9DD3AB" stroke="#7780B1" stroke-opacity="0.7"/>
<path id="Vector 3" d="M153.5 490.5H149.5L137.5 504.5L136.5 508.5V511.5L139.5 514.5H166.5L167.5 512.5V509.5L166.5 506.5L153.5 490.5Z" fill="#9DD3AB" stroke="#7780B1" stroke-opacity="0.7"/>
<path id="Vector 4" d="M141.5 463.5V460.5H161.5C163.5 460.5 166.7 460.7 163.5 461.5C160.3 462.3 155.5 469.833 153.5 473.5L150.5 477.5H149.5L141.5 463.5Z" fill="#9DD3AB" stroke="#7780B1" stroke-opacity="0.7"/>
<path id="Vector 5" d="M164.5 465.5H165.5L170.5 484.5C169.5 484.833 167.5 486.1 167.5 488.5C167.5 490.9 170.167 492.167 171.5 492.5V505.5L170.5 506.5L154.5 486.5V482.5C154.5 479.7 160.5 470.667 163.5 466.5L164.5 465.5Z" fill="#9DD3AB" stroke="#7780B1" stroke-opacity="0.7"/>
<path id="Vector 6" d="M174.5 492C174.5 494.8 176 502.5 177 506C177.429 507.5 184 494.5 184.5 491.5V489C184.5 486.6 183.833 484.333 183.5 483.5C180.5 479.333 173.9 470.1 171.5 466.5C169.1 462.9 169.167 465.667 169.5 467.5L173.5 484C174.5 484 176.5 485.3 176.5 488.5C176.5 491 174.5 491 174.5 492Z" fill="#9DD3AB" stroke="#7780B1" stroke-opacity="0.7"/>
<path id="Vector 7" d="M208.5 475.5H203.5V502.5H208.5V475.5Z" fill="#9DD3AB" stroke="#7780B1" stroke-opacity="0.7"/>
<path id="Vector 8" d="M208.5 444.5H203.5V467.5H208.5V444.5Z" fill="#9DD3AB" stroke="#7780B1" stroke-opacity="0.7"/>
<path id="Vector 9" d="M133.5 428.5H128.5V447.5H133.5V428.5Z" fill="#9DD3AB" stroke="#7780B1" stroke-opacity="0.7"/>
<path id="grass11" d="M124.5 447.5H116.5V408.5H124.5V447.5Z" fill="#9DD3AB" stroke="#7780B1" stroke-opacity="0.7"/>
<path id="Vector 11" d="M124.5 465.5H116.5V502.5H124.5V465.5Z" fill="#9DD3AB" stroke="#7780B1" stroke-opacity="0.7"/>
<path id="Vector 12" d="M133.5 527.5H128.5V542.5H133.5V527.5Z" fill="#9DD3AB" stroke="#7780B1" stroke-opacity="0.7"/>
<path id="Vector 13" d="M128.5 548.5H132.5V576.5H128.5V570.5H124.5V553.5H128.5V548.5Z" fill="#9DD3AB" stroke="#7780B1" stroke-opacity="0.7"/>
<path id="Vector 14" d="M88.5 542.5V539.5H83.5L80.5 542.5H88.5Z" fill="#9DD3AB" stroke="#7780B1" stroke-opacity="0.7"/>
<path id="Vector 15" d="M159.5 586.5H135.5V602.5H159.5V586.5Z" fill="#9DD3AB" stroke="#7780B1" stroke-opacity="0.7"/>
<path id="Vector 16" d="M159.5 604.5H135.5V642.5H159.5V604.5Z" fill="#9DD3AB" stroke="#7780B1" stroke-opacity="0.7"/>
<path id="Vector 17" d="M62.5 603.5H121.5V642.5H62.5V603.5Z" fill="#9DD3AB" stroke="#7780B1" stroke-opacity="0.7"/>
<path id="Vector 18" d="M60.5 621.5V603.5H57.5V621.5H60.5Z" fill="#9DD3AB" stroke="#7780B1" stroke-opacity="0.7"/>
<path id="Vector 19" d="M60.5 623.5H57.5V642.5H60.5V623.5Z" fill="#9DD3AB" stroke="#7780B1" stroke-opacity="0.7"/>
<path id="Vector 20" d="M60.5 644.5H57.5V668.5H60.5V644.5Z" fill="#9DD3AB" stroke="#7780B1" stroke-opacity="0.7"/>
<path id="Vector 21" d="M121.5 645.5H106.5V670.5H121.5V645.5Z" fill="#9DD3AB" stroke="#7780B1" stroke-opacity="0.7"/>
<path id="Vector 22" d="M74.5 644.5H62.5V670.5L56.5 673.5V676.5L58.5 679.5L59.5 683.5L61.5 697.5L62.5 702.5L67.5 713.5L79.5 726.5L91.5 732.5L95.5 733.5H112.5L116.5 732.5L163.5 708.5L153.5 695.5L119.5 712.5L112.5 697.5H105.5V704.5H74.5V644.5Z" fill="#9DD3AB" stroke="#7780B1" stroke-opacity="0.7"/>
<path id="Vector 23" d="M105.5 695.5V678.5L111.5 692.5V694.5L110.5 695.5H105.5Z" fill="#9DD3AB" stroke="#7780B1" stroke-opacity="0.7"/>
<path id="Vector 24" d="M159.5 644.5H154.5V692.5H159.5V644.5Z" fill="#9DD3AB" stroke="#7780B1" stroke-opacity="0.7"/>
<path id="Vector 25" d="M121.5 553.5H105.5V572H110V601.5H119.5V600.5H121.5V582.5H119.5V573.5H121.5V553.5Z" fill="#9DD3AB" stroke="#7780B1" stroke-opacity="0.7"/>
<path id="Vector 26" d="M133.5 378.5H128.5V402.5H133.5V378.5Z" fill="#9DD3AB" stroke="#7780B1" stroke-opacity="0.7"/>
<g id="Vector 27">
<path d="M194.5 478.5L196.5 475.5H201.5V502.5H200.5L194.5 489.5V478.5Z" fill="#9DD3AB"/>
<path d="M175.5 464.5V460.5H198.5L199.5 461.5V465.5L190.5 479.5L188.5 480.5H186.5L175.5 464.5Z" fill="#9DD3AB"/>
<path d="M194.5 478.5L196.5 475.5H201.5V502.5H200.5L194.5 489.5V478.5Z" stroke="#7780B1" stroke-opacity="0.7"/>
<path d="M175.5 464.5V460.5H198.5L199.5 461.5V465.5L190.5 479.5L188.5 480.5H186.5L175.5 464.5Z" stroke="#7780B1" stroke-opacity="0.7"/>
</g>
<path id="Vector 28" d="M200.5 513.5H184.5L182.5 510.5V506.5L189.5 490.5H191.5L192.5 492.5L200.5 511.5V513.5Z" fill="#9DD3AB" stroke="#7780B1" stroke-opacity="0.7"/>
<path id="Vector 29" d="M136.5 432.5H135.5V446.5H140.5L143.5 443.5V440.5L136.5 432.5Z" fill="#9DD3AB" stroke="#7780B1" stroke-opacity="0.7"/>
<path id="Vector 30" d="M154.5 451.5H141.5V449.5L144.5 445.5H147.5L154.5 449.5V451.5Z" fill="#9DD3AB" stroke="#7780B1" stroke-opacity="0.7"/>
<path id="Vector 31" d="M139.5 432.5V431.5H146.5V425.5L148.5 424.5L150.5 423.5H154.5L158.5 425.5V431.5H162.5V432.5L149.5 440.5H146.5L139.5 432.5Z" fill="#9DD3AB" stroke="#7780B1" stroke-opacity="0.7"/>
<path id="Vector 32" d="M172.5 439.5L171.5 440.5V451.5H175.5L179.5 447.5V444.5L175.5 439.5H172.5Z" fill="#9DD3AB" stroke="#7780B1" stroke-opacity="0.7"/>
<path id="Vector 33" d="M164.5 435.5H161.5L152.5 441.5L151.5 442.5V443.5L152.5 444.5H154.5L155.5 445.5H156.5L161.5 451.5H165.5V436.5L164.5 435.5Z" fill="#9DD3AB" stroke="#7780B1" stroke-opacity="0.7"/>
<path id="Vector 34" d="M178.5 431.5H172.5L173.5 434.5L180.5 441.5H185.5L187.5 439.5V435.5L185.5 432.5V428.5H178.5V431.5Z" fill="#9DD3AB" stroke="#7780B1" stroke-opacity="0.7"/>
<path id="Vector 35" d="M193.5 442.5L191.5 441.5H190.5V442.5H188.5L187.5 443.5H185.5L184.5 444.5H182.5L181.5 445.5V446.5L183.5 448.5V451.5H193.5V442.5Z" fill="#9DD3AB" stroke="#7780B1" stroke-opacity="0.7"/>
<path id="Vector 36" d="M188.5 425.5L189.5 424.5H192.5V428.5H197.5V437.5H195.5V436.5H190.5L188.5 433.5V425.5Z" fill="#9DD3AB" stroke="#7780B1" stroke-opacity="0.7"/>
<path id="Vector 37" d="M165.5 385.5L164.5 384.5L157.5 392.5V396.5L163.5 403.5H165.5V385.5Z" fill="#9DD3AB" stroke="#7780B1" stroke-opacity="0.7"/>
<path id="Vector 38" d="M137.5 378.5H135.5V402.5H139.5L151.5 393.5V392.5L137.5 378.5Z" fill="#9DD3AB" stroke="#7780B1" stroke-opacity="0.7"/>
<path id="Vector 39" d="M133.5 364.5H128.5V371.5H133.5V364.5Z" fill="#9DD3AB" stroke="#7780B1" stroke-opacity="0.7"/>
<path id="Vector 40" d="M233.5 339.5H213.5V346.5H233.5V339.5Z" fill="#9DD3AB" stroke="#7780B1" stroke-opacity="0.7"/>
<path id="Vector 41" d="M235.5 346.5V339.5H281.5L283.5 341.5H285.5L286.5 342.5H288.5V346.5H235.5Z" fill="#9DD3AB" stroke="#7780B1" stroke-opacity="0.7"/>
<path id="Vector 42" d="M292.5 346.5V342.5H294.5L295.5 341.5H297.5L299.5 339.5H321.5V340.5L315.5 346.5H292.5Z" fill="#9DD3AB" stroke="#7780B1" stroke-opacity="0.7"/>
<path id="Vector 43" d="M338.5 368.5H308.5V374.5H338.5V368.5Z" fill="#9DD3AB" stroke="#7780B1" stroke-opacity="0.7"/>
<path id="Vector 44" d="M305.5 368.5H295.5V370.5L299.5 374.5H305.5V368.5Z" fill="#9DD3AB" stroke="#7780B1" stroke-opacity="0.7"/>
<path id="Vector 45" d="M151.5 379.5H144.5V381.5L152.5 390.5H155.5L161.5 383.5V382.5L160.5 381.5H157.5V380.5H151.5V379.5Z" fill="#9DD3AB" stroke="#7780B1" stroke-opacity="0.7"/>
<path id="Vector 46" d="M133.5 408.5H128.5V423.5H131.5L133.5 422.5V408.5Z" fill="#9DD3AB" stroke="#7780B1" stroke-opacity="0.7"/>
<path id="Vector 47" d="M135.5 421.5V408.5L140.5 405.5L149.5 415.5L148.5 417.5H142.5V421.5L139.5 422.5H137.5L135.5 421.5Z" fill="#9DD3AB" stroke="#7780B1" stroke-opacity="0.7"/>
<g id="Vector 48">
<path d="M155.5 420.5L151.5 419.5V414.5L143.5 404.5L144.5 402.5L152.5 396.5H154.5L165.5 408.5V416.5H158.5V419.5L155.5 420.5Z" fill="#9DD3AB"/>
<path d="M152.5 364.5H135.5V372.5H137.5L143.5 376.5L149.5 377.5L154.5 378.5L159.5 379.5H163.5L165.5 378.5L163.5 375.5H161.5L159.5 374.5L153.5 369.5L152.5 366.5V364.5Z" fill="#9DD3AB"/>
<path d="M155.5 420.5L151.5 419.5V414.5L143.5 404.5L144.5 402.5L152.5 396.5H154.5L165.5 408.5V416.5H158.5V419.5L155.5 420.5Z" stroke="#7780B1" stroke-opacity="0.7"/>
<path d="M152.5 364.5H135.5V372.5H137.5L143.5 376.5L149.5 377.5L154.5 378.5L159.5 379.5H163.5L165.5 378.5L163.5 375.5H161.5L159.5 374.5L153.5 369.5L152.5 366.5V364.5Z" stroke="#7780B1" stroke-opacity="0.7"/>
</g>
<g id="Vector 49">
<path d="M188.5 378.5H172.5L174.5 375.5L178.5 374.5L183.5 370.5L185.5 366.5V364.5H201.5V370.5L188.5 378.5Z" fill="#9DD3AB"/>
<path d="M199.5 374.5H201.5V378.5H192.5L199.5 374.5Z" fill="#9DD3AB"/>
<path d="M188.5 378.5H172.5L174.5 375.5L178.5 374.5L183.5 370.5L185.5 366.5V364.5H201.5V370.5L188.5 378.5Z" stroke="#7780B1" stroke-opacity="0.7"/>
<path d="M199.5 374.5H201.5V378.5H192.5L199.5 374.5Z" stroke="#7780B1" stroke-opacity="0.7"/>
</g>
<path id="Vector 50" d="M128.5 352.5V340.5H145.5V341.5L135.5 352.5H128.5Z" fill="#9DD3AB" stroke="#7780B1" stroke-opacity="0.7"/>
<path id="Vector 51" d="M152.5 352.5H138.5V351.5L147.5 341.5L150.5 337.5H151.5L155.5 339.5L160.5 340.5V341.5L157.5 342.5L153.5 346.5L152.5 348.5V352.5Z" fill="#9DD3AB" stroke="#7780B1" stroke-opacity="0.7"/>
<path id="Vector 52" d="M141.5 325.5H128.5V339.5H146.5L149.5 336.5L148 334.5L146 332.5L142.5 327.5L141.5 325.5Z" fill="#9DD3AB" stroke="#7780B1" stroke-opacity="0.7"/>
<path id="Vector 53" d="M156 325.5H143.5L145.5 328.5V329.5L151 335L156.5 338.5H159.5L160.5 339.5H163.5V332L156 325.5Z" fill="#9DD3AB" stroke="#7780B1" stroke-opacity="0.7"/>
<path id="Vector 54" d="M185.5 352.5V350L182.5 344.5L176.5 341.5L180 339.5L184.5 338.5L187.5 339.5L189.5 340.5L196.5 346L201.5 351.5V352.5H185.5Z" fill="#9DD3AB" stroke="#7780B1" stroke-opacity="0.7"/>
<path id="Vector 55" d="M209.5 340.5H192.5L199 346.5L201.5 349L203.5 352.5H209.5V340.5Z" fill="#9DD3AB" stroke="#7780B1" stroke-opacity="0.7"/>
<path id="Vector 56" d="M209.5 338.5H191.5L188.5 336.5V334.5L192.5 328.5L193.5 325.5H209.5V338.5Z" fill="#9DD3AB" stroke="#7780B1" stroke-opacity="0.7"/>
<path id="Vector 57" d="M191.5 325.5H174.5V339.5H177.5L181.5 337.5L186 335L188.5 331.5L190.5 329L191.5 326" stroke="#7780B1" stroke-opacity="0.7"/>
<path id="Vector 58" d="M222.5 337.5H212.5V319.5H222.5V337.5Z" fill="#9DD3AB" stroke="#7780B1" stroke-opacity="0.7"/>
<path id="Vector 59" d="M222.5 310.5V317.5H192.5V298.5H196.5V310.5H222.5Z" fill="#9DD3AB" stroke="#7780B1" stroke-opacity="0.7"/>
<path id="Vector 60" d="M196.5 294.5H192.5V285.5H196.5V294.5Z" fill="#9DD3AB" stroke="#7780B1" stroke-opacity="0.7"/>
<path id="Vector 61" d="M202.5 304.5V298.5H204.5V301.5H221.5V304.5H202.5Z" fill="#9DD3AB" stroke="#7780B1" stroke-opacity="0.7"/>
<path id="Vector 62" d="M232.5 295.5H227.5V292.5L226.5 291.5V288.5L225.5 287.5L227.5 285.5H232.5V295.5Z" fill="#9DD3AB" stroke="#7780B1" stroke-opacity="0.7"/>
<path id="Vector 63" d="M232.5 298.5H228.5V337.5H233.5V329.5H232.5V298.5Z" fill="#9DD3AB" stroke="#7780B1" stroke-opacity="0.7"/>
<path id="Vector 64" d="M229.5 280.5H220.5V267.5H224.5V251.5H208.5V253.5H205.5V251.5H192.5V236.5L194.5 235.5H214.5V234.5H229.5V280.5Z" fill="#9DD3AB" stroke="#7780B1" stroke-opacity="0.7"/>
<path id="Vector 65" d="M232.5 275.5H235.5H254.5V271.5L253.5 270.5V262.5L252.5 261.5V256.5H248.5V257.5H245.5L244.5 256.5H241.5L240.5 257.5H237.5L236.5 256.5H232.5V260.5L234.5 261.5V264.5H232.5V267.5L234.5 268.5V271.5L233.5 272.5H232.5V275.5Z" fill="#9DD3AB" stroke="#7780B1" stroke-opacity="0.7"/>
<path id="Vector 66" d="M271.5 256.5H256.5V259.5L257.5 260.5V268.5L258.5 269.5V277.5H267.5V259.5H271.5V256.5Z" fill="#9DD3AB" stroke="#7780B1" stroke-opacity="0.7"/>
<path id="Vector 67" d="M293.5 256.5H283.5V259.5H293.5V256.5Z" fill="#9DD3AB" stroke="#7780B1" stroke-opacity="0.7"/>
<path id="Vector 68" d="M320.5 256.5H309.5V283.5H318.5L319.5 284.5V288.5H320.5V256.5Z" fill="#9DD3AB" stroke="#7780B1" stroke-opacity="0.7"/>
<path id="Vector 69" d="M308.5 338.5V335.5H298.5V338.5H308.5Z" fill="#9DD3AB" stroke="#7780B1" stroke-opacity="0.7"/>
<path id="Vector 70" d="M282.5 338.5V335.5H271.5V338.5H282.5Z" fill="#9DD3AB" stroke="#7780B1" stroke-opacity="0.7"/>
<path id="Vector 71" d="M235.5 337.5V335.5H250.5V322.5H254.5V337.5H235.5Z" fill="#9DD3AB" stroke="#7780B1" stroke-opacity="0.7"/>
<path id="Vector 72" d="M185.5 240.5V236.5H176.5L174.5 237.5H157.5L155.5 238.5H137.5L136.5 239.5H118.5L117.5 240.5H106.5V255.5L107.5 256.5V258.5H109.5V254.5H184.5H187.5V247.5L186.5 246.5V241.5L185.5 240.5Z" fill="#9DD3AB" stroke="#7780B1" stroke-opacity="0.7"/>
<path id="Vector 73" d="M100.5 253.5V241.5H78.5L77.5 242.5V244.5H78.5V253.5H100.5Z" fill="#9DD3AB" stroke="#7780B1" stroke-opacity="0.7"/>
<path id="Vector 74" d="M100.5 258.5V255.5H95.5V260.5H98.5L100.5 258.5Z" fill="#9DD3AB" stroke="#7780B1" stroke-opacity="0.7"/>
<path id="Vector 75" d="M83.5 259.5L85.5 261.5H93.5V256.5H81.5V259.5H83.5Z" fill="#9DD3AB" stroke="#7780B1" stroke-opacity="0.7"/>
<path id="Vector 76" d="M109.5 268.5H115.5H116.5V306.5H111.5V288.5L109.5 286.5V268.5Z" fill="#9DD3AB" stroke="#7780B1" stroke-opacity="0.7"/>
<path id="Vector 77" d="M143.5 306.5H138.5V312.5H111.5V329.5L110.5 330.5V338.5H125.5V313.5H143.5V306.5Z" fill="#9DD3AB" stroke="#7780B1" stroke-opacity="0.7"/>
<path id="Vector 78" d="M107.5 338.5V331.5H99.5V338.5H107.5Z" fill="#9DD3AB" stroke="#7780B1" stroke-opacity="0.7"/>
<path id="Vector 79" d="M63.5 345.5V329.5H96.5V347.5H65.5L63.5 345.5Z" fill="#9DD3AB" stroke="#7780B1" stroke-opacity="0.7"/>
<path id="Vector 80" d="M60.5 349.5V328.5H57.5V351.5H58.5L60.5 349.5Z" fill="#9DD3AB" stroke="#7780B1" stroke-opacity="0.7"/>
<path id="Vector 81" d="M58.5 364.5L57.5 365.5V435.5L60.5 438.5V450.5L62.5 452.5H105.5L107.5 450.5V447.5L108.5 446.5H112.5V444.5H100.5V412.5H90.5L88.5 410.5V402.5H90.5V371.5L88.5 369.5H64.5L63.5 368.5L58.5 364.5Z" fill="#9DD3AB" stroke="#7780B1" stroke-opacity="0.7"/>
<path id="Vector 82" d="M105.5 460.5H62.5L60.5 462.5V474.5L57.5 477.5V547.5H58.5L64.5 542.5H78.5L83.5 537.5H88.5V502.5L90.5 500.5H112.5V466.5H108.5L107.5 465.5V462.5L105.5 460.5Z" fill="#9DD3AB" stroke="#7780B1" stroke-opacity="0.7"/>
<path id="Vector 83" d="M91.5 542.5V537.5H114.5V549.5H106.5L105.5 548.5V544.5L103.5 542.5H91.5Z" fill="#9DD3AB" stroke="#7780B1" stroke-opacity="0.7"/>
<path id="Vector 84" d="M57.5 595V558H64V595H57.5Z" fill="#9DD3AB" stroke="#7780B1" stroke-opacity="0.7"/>
<path id="Vector 85" d="M102.5 644.5H97.5V670.5H102.5V644.5Z" fill="#9DD3AB" stroke="#7780B1" stroke-opacity="0.7"/>
<path id="Vector 86" d="M161.5 696.5V678.5H163.5V697.5L167.5 701.5H174.5L264.5 654.5V640.5L276.5 637.5V640.5L283.5 646.5L281.5 648.5L174.5 703.5H166.5L162.5 699.5L161.5 696.5Z" fill="#9DD3AB" stroke="#7780B1" stroke-opacity="0.7"/>
<path id="Vector 87" d="M136.5 551.5H142.5H145.5V559.5H137.5L136.5 558.5V551.5Z" fill="#9DD3AB" stroke="#7780B1" stroke-opacity="0.7"/>
<path id="Vector 88" d="M167.5 517.5V520.5H145.5V541.5H142.5V547.5H136.5V523.5L139.5 521.5L140.5 522.5H143.5V521.5L144.5 520.5V518.5L145.5 517.5H167.5Z" fill="#9DD3AB" stroke="#7780B1" stroke-opacity="0.7"/>
<path id="Vector 89" d="M184.5 517.5V520.5H206.5V530.5H210.5V518.5L208.5 516.5H185.5L184.5 517.5Z" fill="#9DD3AB" stroke="#7780B1" stroke-opacity="0.7"/>
<path id="Vector 90" d="M210.5 531.5H208.5V544.5H210.5V531.5Z" fill="#9DD3AB" stroke="#7780B1" stroke-opacity="0.7"/>
<path id="Vector 91" d="M202.5 560.5V558.5V557.5H209.5V546.5H210.5V560.5H202.5Z" fill="#9DD3AB" stroke="#7780B1" stroke-opacity="0.7"/>
<path id="Vector 92" d="M229.5 542.5V540.5H237.5V537.5H240.5V542.5H271.5V537.5H275.5V540.5H283.5V541.5L282.5 543.5L280.5 544.5H231.5L229.5 542.5Z" fill="#9DD3AB" stroke="#7780B1" stroke-opacity="0.7"/>
<path id="Vector 93" d="M279.5 497.5H274.5V483.5H283.5V502.5H279.5V497.5Z" fill="#9DD3AB" stroke="#7780B1" stroke-opacity="0.7"/>
<path id="Vector 94" d="M283.5 475.5H274.5V480.5H283.5V475.5Z" fill="#9DD3AB" stroke="#7780B1" stroke-opacity="0.7"/>
<path id="Vector 95" d="M277.5 461.5V459.5H283.5V461.5H277.5Z" fill="#9DD3AB" stroke="#7780B1" stroke-opacity="0.7"/>
<path id="Vector 96" d="M277.5 445.5V438.5H283.5V445.5H277.5Z" fill="#9DD3AB" stroke="#7780B1" stroke-opacity="0.7"/>
<path id="Vector 97" d="M297.5 404.5V380.5H295.5V404.5H297.5Z" fill="#9DD3AB" stroke="#7780B1" stroke-opacity="0.7"/>
<path id="Vector 98" d="M115.5 375.5H92.5V371.5L94.5 369.5H112.5L115.5 371.5V375.5Z" fill="#9DD3AB" stroke="#7780B1" stroke-opacity="0.7"/>
<path id="Vector 99" d="M412.5 284.5L411.5 240.5L415 243L424.5 246.5L437.5 247.5L442.5 249.5L433.5 257L425.5 266L413.5 284.5H412.5Z" fill="#9DD3AB" stroke="#7780B1" stroke-opacity="0.7"/>
<path id="Vector 100" d="M445.5 247.5V241.5L461.5 230.5H468.5L467.5 234.5L465.5 238.5L457 241.5L447.5 247.5H445.5Z" fill="#9DD3AB" stroke="#7780B1" stroke-opacity="0.7"/>
<path id="Vector 101" d="M415.5 235.5V232.5L433.5 224.5L445.5 219.5L452.5 222.5L455.5 228.5L447.5 235L442 239.5L441 242L423 241L415.5 235.5Z" fill="#9DD3AB" stroke="#7780B1" stroke-opacity="0.7"/>
<path id="Vector 102" d="M459.5 226.5L456.5 221.5L496.5 203.5L501 201.5L513 223L524.5 244.5L517 243L509.5 240.5L508 241.5L507.5 244.5L505.5 250.5L500.5 249.5L502 243.5L502.5 239.5L496 237.5L489.5 236.5H471.5L473.5 226.5H459.5Z" fill="#9DD3AB" stroke="#7780B1" stroke-opacity="0.7"/>
<path id="Vector 103" d="M539.5 244.5L513.5 195.5L530 188L509.5 143L486.5 95.5L456.5 109.5L454.5 102.5L469 95.5L484.5 89.5L487.5 92L489.5 95.5L521 158.5L537.5 193.5L543.5 212.5L544.5 232.5L539.5 244.5Z" fill="#9DD3AB" stroke="#7780B1" stroke-opacity="0.7"/>
<path id="Vector 104" d="M441.5 111.5L444.5 114.5L406.5 132L424 172L442.5 210.5L427.5 217L411 224.5L412.5 156.5L402.5 132.5L401.5 129.5L422 119.5L441.5 111.5Z" fill="#9DD3AB" stroke="#7780B1" stroke-opacity="0.7"/>
<g id="Vector 105">
<path d="M609.511 333.499C609.507 333.5 609.503 333.5 609.5 333.5C609.5 333.491 609.504 333.49 609.511 333.499C610.019 333.444 617.029 330.153 620.5 328.5L639.5 366.5L638.5 369.5L636.5 370.5H632.5L624.5 364.5C616.687 349.851 609.828 333.867 609.511 333.499Z" fill="#9DD3AB"/>
<path d="M609.5 333.5C609.9 333.5 617 330.167 620.5 328.5L639.5 366.5L638.5 369.5L636.5 370.5H632.5L624.5 364.5C616.5 349.5 609.5 333.1 609.5 333.5Z" stroke="#7780B1" stroke-opacity="0.7"/>
</g>
<path id="Vector 106" d="M680.5 438.5L676 436.5L659.5 407.5L643.5 377L643 376.5H638.5L637.5 379V380.5L658.5 423.5L662 423L664.5 421.5L673.5 437.5L669 442L663.5 445.5H661.5L648 452L634.5 459.5L646.5 483.5L680.5 468.5L706.5 452.5L703.5 448.5L697 444L692.5 442.5L685.5 440.5L680.5 438.5Z" fill="#9DD3AB" stroke="#7780B1" stroke-opacity="0.7"/>
<path id="Vector 107" d="M30.5 761.5H23.5V498.5L27 501.5L31 506.5L33.5 511.5L34.5 514.5L35.5 518.5V545.5L34.5 546.5V598.5L33.5 599.5V651.5L32.5 652.5V704.5L31.5 705.5V757.5L30.5 758.5V761.5Z" fill="#9DD3AB" stroke="#7780B1" stroke-opacity="0.7"/>
<path id="Vector 108" d="M23.5 483.5H31.5L34 481.5L35.5 478.5V436.5L33.5 433.5L30.5 431.5H25.5L23.5 432.5V483.348" stroke="#7780B1" stroke-opacity="0.7"/>
<path id="Vector 109" d="M30.5 419.5H23.5V322.5H30.5L33.5 324L35.5 327.5V413.5L34 417L30.5 419.5Z" fill="#9DD3AB" stroke="#7780B1" stroke-opacity="0.7"/>
<path id="Vector 110" d="M74.5 246.5V250.5H66.5V304.5H75.5L80.5 310.5H65.5L64.5 308.5L61.5 306L57.5 305.5V243.5H62.5L63.5 242.5H73.5V244.5L74.5 246.5Z" fill="#9DD3AB" stroke="#7780B1" stroke-opacity="0.7"/>
<path id="Vector 111" d="M57.5 316.5V307.5H60.5L63.5 310.5V313.5L60.5 316.5H57.5Z" fill="#9DD3AB" stroke="#7780B1" stroke-opacity="0.7"/>
<path id="Vector 112" d="M57.5 325.5V319.5L61.5 318L64 315.5L66.5 312.5H82.5L86.5 314.5L89.5 315.5V318.5H64.5V325.5H57.5Z" fill="#9DD3AB" stroke="#7780B1" stroke-opacity="0.7"/>
</g>
<g id="buildings">
<path id="building_rhs" d="M121 468H101V469H100V503H101V504H102V505H104V510H83V538H124L124.036 536H125V511H124.036V510H119V505H121V504H122V469H121V468Z" fill="#B6394F"/>
<path id="building_lrc" d="M168 520H145V541H142V556H145V559H154V568H200V559H207V558H210V543H207V520H183C182.667 517.833 183 514 175.5 514C168 514 168.333 517.833 168 520Z" fill="#B6394F"/>
<path id="building_rhn" d="M125 375H83V403H104V408H100V445H123V408H120V403H125V375Z" fill="#B6394F"/>
<path id="building_moh" d="M98 644H76V703H103V675H98V644Z" fill="#B6394F"/>
<path id="building_nas" d="M154 692V645H131V646H129V647H128V661H130V678L112 687.5L120 708L154 692Z" fill="#B6394F"/>
<path id="building_rep" d="M259 567H234V578H259V567Z" fill="#B6394F"/>
<path id="building_ops_vec" d="M279 567H262.5V578.5H265V641L279 636.5V567Z" fill="#B6394F"/>
<path id="building_stc_sog_bus" d="M244 442H218V470H244V475H242V498H245V507H238V505H229V510H233V513H231V519H233V526H231V533H233V534H229V541H238V538H240V543H272V538H275V541H284V534H279V532H281V513H279V510H284V504H275V505H272V498H275V475H269V462H278V438H268V430H244V442Z" fill="#B6394F"/>
<path id="building_cic" d="M204 386H176V397H175V407H176V412H204V428H210V426H228V422H272V423H277V420H284V381H277V378H271V379H268V374H255V377H248V379H234V377H225V386H209V385H204V386Z" fill="#B6394F"/>
<path id="building_uns" d="M303 465H300V438L316 422H333V420H345V425H347V433H321L311 443V467H303V465Z" fill="#B6394F"/>
<path id="building_cdc" d="M378 411H361V398H359V380H364V382H377V380H382V389H408V411H395V414H385V416H378V411Z" fill="#B6394F"/>
<path id="building_hsp" d="M304 373H301V378L299 381H297V404H295V412H308V416H311V412H336V416H344V410H355V397H350V382H339V374H304V373Z" fill="#B6394F"/>
<path id="building_pan" d="M423 424L413 430L436 473L446 467L423 424Z" fill="#B6394F"/>
<path id="building_tec" d="M109 259V247H117V246H136V245H165V244H175V243H185V256H181V258H169V256H152V259H140V258H127V259H109Z" fill="#B6394F"/>
<path id="building_sts" d="M108 289H93V319H90V318H64V326H65V329H64V336H100C104.071 335.554 105.653 334.484 107 331V329H108V289Z" fill="#B6394F"/>
<path id="building_ffa" d="M251 259H235V336H251V259Z" fill="#B6394F"/>
<path id="building_pas" d="M487 95L406 132L449 225L530 188L487 95Z" fill="#B6394F"/>
<path id="building_cos_shw" d="M87 247H99V257H84V258H79L77 259V276H76V288H78V298H76V305H66V295H65V283H66V279H65V264H66V261H65V250H78V248H87V247Z" fill="#B6394F" stroke="black" stroke-opacity="0.06"/>
<path id="building_pac_act" d="M143 313H117V323H118V336H126V322H156V327L161 332H164V329H174V332H177L182 327V322H212V336H220V323H221V313H194V283H209V279H221V268H225V251H208V253H206V251H198V268H116V280H115V290H116V307H143V313Z" fill="#B6394F" stroke="black" stroke-opacity="0.06"/>
<path id="building_luc" d="M319 259H267V275H285V284H319V259Z" fill="#B6394F" stroke="black" stroke-opacity="0.06"/>
<path id="building_mak" d="M320 227H352V251H322V239H331V237H320V227Z" fill="#B6394F" stroke="black" stroke-opacity="0.06"/>
<path id="building_luc_cst" d="M302 286H285V298H273V296H267V336H283V339H284V340H289V339H292V340H297V339H298V336H315V312H320V298H302V286Z" fill="#B6394F" stroke="black" stroke-opacity="0.06"/>
<path id="building_soc" d="M300 577V563H304V577H300Z" fill="#B6394F"/>
</g>
</g>
</svg>
