<svg id="canvas" width="685" height="674" viewBox="0 0 685 674" fill="none" xmlns="http://www.w3.org/2000/svg">
<g id="main">
<rect width="685" height="674" fill="#F5F5F5"/>
<g id="staff_parking">
<path id="staff_parking_g" d="M43 461.073V455.073H80V456.073H81V475.073H87V483.073H94V507.073H87V513.073H34V506.073H41V469.073H34V461.073H43Z" fill="#CACFD4" stroke="#6C6DAE"/>
<path id="staff_parking_c" d="M124.5 473.573H112.5V494.573H128.5V492.573H131.5V491.573H138.5V500.573H172.5V506.573H180.5V502.573H209.5V489.573H210.5V483.573H204.5V471.573L206.5 469.573H211.5V473.573H257.5V467.573H259.5L261.5 469.573H262.5V456.573H261.5L260.5 457.573L259.5 458.573H255.5V461.573H208.5V458.573H207.5L198.5 467.573V476.573H192.5V484.573H190.5V481.573H155.5V489.573H147.5V481.573H128.5V484.573H120.5V482.573H124.5V473.573Z" fill="#CACFD4" stroke="#6C6DAE"/>
<g id="staff_parking_f">
<path d="M138.5 501.573H171.5V506.573H181.5V502.573H211.5V489.573H241.5V566.073L189.5 592.073L190 593.073L191 595.073L182.5 600.073L180.5 596.573L151.5 612.573H149.5H144.5L140.5 608.573V589.573H138.5V501.573Z" fill="#CACFD4"/>
<path d="M189.5 592.073L190 593.073L191 595.073L182.5 600.073L180.5 596.573M189.5 592.073L186 583.573M189.5 592.073L241.5 566.073V489.573H211.5V502.573H181.5V506.573H171.5V501.573H138.5V589.573H140.5V608.573L144.5 612.573H149.5H151.5L180.5 596.573M180.5 596.573L176 585.073M176 585.073L172 515.073V515.573L176 585.073ZM186 583.573L181 515.573V515.073L186 583.573Z" stroke="#6C6DAE"/>
</g>
<path id="staff_parking_k" d="M216.5 142.573H209.5V157.573L214.5 162.573H226.5V165.573H227.5H281.5L287.5 159.573H291.5V150.573L290.5 149.573V142.573H289.5V141.573H268.5V142.573H249.5L248.5 143.573H230.5L229.5 144.573H216.5V142.573Z" fill="#CACFD4" stroke="#6C6DAE"/>
</g>
<g id="landmarks">
<circle id="LM_water_tower" cx="345" cy="91.0725" r="22.5" fill="#F6F6F6" stroke="#6C6DAE"/>
</g>
<g id="labels">
<path id="WATER TOWER" d="M329.202 88.0725L327.213 80.7998H328.108L329.628 86.7231H329.699L331.247 80.7998H332.241L333.79 86.7231H333.861L335.381 80.7998H336.276L334.287 88.0725H333.378L331.773 82.2771H331.716L330.111 88.0725H329.202ZM337.105 88.0725H336.181L338.852 80.7998H339.761L342.431 88.0725H341.508L339.335 81.9504H339.278L337.105 88.0725ZM337.446 85.2316H341.167V86.0129H337.446V85.2316ZM342.317 81.5811V80.7998H347.771V81.5811H345.485V88.0725H344.604V81.5811H342.317ZM349.131 88.0725V80.7998H353.52V81.5811H350.011V84.0384H353.293V84.8197H350.011V87.2913H353.577V88.0725H349.131ZM355.107 88.0725V80.7998H357.565C358.133 80.7998 358.599 80.8969 358.964 81.091C359.328 81.2828 359.598 81.5467 359.773 81.8829C359.949 82.2191 360.036 82.6014 360.036 83.0299C360.036 83.4584 359.949 83.8384 359.773 84.1698C359.598 84.5013 359.33 84.7617 358.967 84.9511C358.605 85.1381 358.142 85.2316 357.579 85.2316H355.59V84.4362H357.55C357.939 84.4362 358.251 84.3794 358.488 84.2657C358.727 84.1521 358.9 83.9911 359.006 83.7828C359.115 83.5721 359.17 83.3211 359.17 83.0299C359.17 82.7387 359.115 82.4842 359.006 82.2664C358.897 82.0486 358.723 81.8805 358.484 81.7622C358.245 81.6414 357.929 81.5811 357.536 81.5811H355.988V88.0725H355.107ZM358.531 84.8055L360.32 88.0725H359.298L357.536 84.8055H358.531ZM327.483 93.5811V92.7998H332.938V93.5811H330.651V100.073H329.77V93.5811H327.483ZM340.13 96.4362C340.13 97.2032 339.992 97.8661 339.715 98.4248C339.438 98.9835 339.058 99.4144 338.575 99.7174C338.092 100.02 337.54 100.172 336.92 100.172C336.3 100.172 335.748 100.02 335.265 99.7174C334.782 99.4144 334.402 98.9835 334.125 98.4248C333.848 97.8661 333.71 97.2032 333.71 96.4362C333.71 95.6691 333.848 95.0063 334.125 94.4475C334.402 93.8888 334.782 93.458 335.265 93.1549C335.748 92.8519 336.3 92.7004 336.92 92.7004C337.54 92.7004 338.092 92.8519 338.575 93.1549C339.058 93.458 339.438 93.8888 339.715 94.4475C339.992 95.0063 340.13 95.6691 340.13 96.4362ZM339.278 96.4362C339.278 95.8064 339.173 95.275 338.962 94.8417C338.754 94.4085 338.471 94.0806 338.113 93.8581C337.758 93.6355 337.36 93.5242 336.92 93.5242C336.48 93.5242 336.081 93.6355 335.723 93.8581C335.368 94.0806 335.085 94.4085 334.875 94.8417C334.666 95.275 334.562 95.8064 334.562 96.4362C334.562 97.0659 334.666 97.5974 334.875 98.0306C335.085 98.4639 335.368 98.7918 335.723 99.0143C336.081 99.2368 336.48 99.3481 336.92 99.3481C337.36 99.3481 337.758 99.2368 338.113 99.0143C338.471 98.7918 338.754 98.4639 338.962 98.0306C339.173 97.5974 339.278 97.0659 339.278 96.4362ZM342.932 100.073L340.944 92.7998H341.838L343.358 98.7231H343.429L344.978 92.7998H345.972L347.52 98.7231H347.591L349.111 92.7998H350.006L348.017 100.073H347.108L345.503 94.2771H345.446L343.841 100.073H342.932ZM351.103 100.073V92.7998H355.493V93.5811H351.984V96.0384H355.265V96.8197H351.984V99.2913H355.549V100.073H351.103ZM357.08 100.073V92.7998H359.537C360.105 92.7998 360.572 92.8969 360.936 93.091C361.301 93.2828 361.571 93.5467 361.746 93.8829C361.921 94.2191 362.009 94.6014 362.009 95.0299C362.009 95.4584 361.921 95.8384 361.746 96.1698C361.571 96.5013 361.302 96.7617 360.94 96.9511C360.578 97.1381 360.115 97.2316 359.551 97.2316H357.563V96.4362H359.523C359.911 96.4362 360.224 96.3794 360.461 96.2657C360.7 96.1521 360.873 95.9911 360.979 95.7828C361.088 95.5721 361.142 95.3211 361.142 95.0299C361.142 94.7387 361.088 94.4842 360.979 94.2664C360.87 94.0486 360.696 93.8805 360.457 93.7622C360.218 93.6414 359.902 93.5811 359.509 93.5811H357.961V100.073H357.08ZM360.503 96.8055L362.293 100.073H361.27L359.509 96.8055H360.503Z" fill="black"/>
</g>
<g id="ev_labels">
<g id="ev_label_2">
<path d="M433 109.073H422V119.073H433V109.073Z" fill="#22B358"/>
<path d="M422.924 117.073V111.254H426.845V112.269H424.154V113.655H426.643V114.669H424.154V116.058H426.856V117.073H422.924Z" fill="white"/>
<path d="M428.154 111.254L429.56 115.675H429.614L431.023 111.254H432.387L430.381 117.073H428.796L426.787 111.254H428.154Z" fill="white"/>
</g>
<g id="ev_label_1">
<path d="M159 593.073H148V603.073H159V593.073Z" fill="#22B358"/>
<path d="M148.924 601.073V595.254H152.845V596.269H150.154V597.655H152.643V598.669H150.154V600.058H152.856V601.073H148.924Z" fill="white"/>
<path d="M154.154 595.254L155.56 599.675H155.614L157.023 595.254H158.387L156.381 601.073H154.796L152.787 595.254H154.154Z" fill="white"/>
</g>
</g>
<g id="athletic_fields">
<g id="Baseball_field">
<path d="M283 507.073L284 378.073H288V354.073L298 344.073H324V336.073H322V331.073H383L416 392.073C420 389.573 427.553 384.022 429 385.573C436 393.073 443 439.573 443 462.073H442V463.073L355 511.073H287L283 507.073Z" fill="#22B358"/>
<path d="M314 368.073C314 369.729 312.657 371.073 311 371.073C309.343 371.073 308 369.729 308 368.073C308 366.416 309.343 365.073 311 365.073C312.657 365.073 314 366.416 314 368.073Z" fill="#EAC280"/>
<path d="M303 354.573C303 357.058 300.985 359.073 298.5 359.073C296.015 359.073 294 357.058 294 354.573C294 352.087 296.015 350.073 298.5 350.073C300.985 350.073 303 352.087 303 354.573Z" fill="#EAC280"/>
<path fill-rule="evenodd" clip-rule="evenodd" d="M336.475 352.914C341.018 366.544 338.768 379.617 331.5 387.841C324.21 396.09 311.975 399.348 296.821 393.539L296.5 393.416V352.573H336.36L336.475 352.914ZM299.5 355.573V378.34L302.849 380.573H322.268L324.5 377.224V357.866L322.207 355.573H299.5Z" fill="#EAC280"/>
<path d="M298.248 494.579C299.283 494.579 300.122 495.418 300.122 496.453C300.122 497.488 299.283 498.327 298.248 498.327C297.212 498.327 296.373 497.488 296.373 496.453C296.373 495.418 297.212 494.579 298.248 494.579Z" fill="#EAC280"/>
<path d="M289.812 501.451C291.365 501.451 292.624 502.709 292.624 504.262C292.624 505.814 291.365 507.073 289.812 507.073C288.259 507.073 287 505.814 287 504.262C287 502.709 288.259 501.451 289.812 501.451Z" fill="#EAC280"/>
<path fill-rule="evenodd" clip-rule="evenodd" d="M288.776 480.541C297.293 477.703 305.461 479.108 310.601 483.648C315.755 488.202 317.791 495.844 314.161 505.31L314.085 505.511H288.562V480.612L288.776 480.541ZM290.437 503.637H304.664L306.059 501.545V489.415L303.966 488.021H291.87L290.437 489.453V503.637Z" fill="#EAC280"/>
</g>
<g id="football_stadium">
<path id="track_field_base" d="M573 292.073L455 351.073C438.167 316.406 404.1 246.272 402.5 243.073C400.5 239.073 398 224.573 403.5 203.573C408.345 185.073 439.5 147.573 487.5 163.073C512.95 171.291 517.5 181.739 523 190.072L573 292.073Z" fill="white" stroke="black" stroke-width="0.5"/>
<path id="track_grass" d="M489.609 346.356L433.913 232.823C433.913 232.823 426.825 206.449 452.141 195.988C477.458 185.527 493.154 206.584 493.154 206.584L547.331 319.108C547.331 319.108 553.037 341.31 531.128 353.925C509.22 366.54 489.609 346.356 489.609 346.356Z" fill="#3A9452" stroke="black" stroke-opacity="0.06"/>
<path id="Subtract" fill-rule="evenodd" clip-rule="evenodd" d="M465.5 183.072C480.499 182.072 494.999 191.572 502 202.072L565 333.072L557 338.072L555 336.072C544.5 363.072 526.333 367.072 516.5 367.572C499 367.572 484.999 355.572 477.5 344.072L425 235.572C422.5 230.072 423.5 214.072 433 199.572C434.838 196.767 444.398 184.479 465.5 183.072ZM482.87 197.999C475.764 194.019 465.477 191.358 452.809 196.61C440.122 201.871 435.531 211.16 434.132 219.123C433.435 223.094 433.531 226.733 433.799 229.377C433.934 230.7 434.112 231.777 434.257 232.524C434.33 232.898 434.394 233.19 434.441 233.39C434.464 233.489 434.483 233.566 434.496 233.618C434.502 233.644 434.508 233.665 434.511 233.679C434.513 233.686 434.514 233.692 434.515 233.695C434.516 233.697 434.517 233.698 434.517 233.699V233.701L434.53 233.748L489.551 346.292L489.585 346.363L489.641 346.42L490 346.072L489.641 346.421L489.642 346.422C489.643 346.423 489.645 346.423 489.646 346.425C489.649 346.428 489.653 346.432 489.658 346.437C489.668 346.447 489.682 346.463 489.702 346.482C489.741 346.522 489.798 346.578 489.874 346.651C490.024 346.798 490.248 347.011 490.538 347.276C491.118 347.806 491.968 348.548 493.056 349.397C495.232 351.093 498.363 353.226 502.18 354.965C509.82 358.445 520.25 360.361 531.251 354.005C542.214 347.67 546.287 338.907 547.605 331.725C548.262 328.14 548.234 324.954 548.041 322.663C547.944 321.517 547.806 320.593 547.692 319.954C547.635 319.635 547.584 319.385 547.546 319.215C547.528 319.13 547.513 319.064 547.502 319.02C547.497 318.997 547.493 318.98 547.49 318.968C547.488 318.962 547.487 318.957 547.486 318.954C547.486 318.953 547.485 318.951 547.485 318.95V318.949C547.484 318.949 547.471 318.952 547.001 319.072L547.485 318.948L547.472 318.9L547.451 318.855L493.951 207.356L493.93 207.313L493.902 207.274L493.501 207.572C493.872 207.296 493.899 207.275 493.901 207.273L493.9 207.272C493.899 207.272 493.899 207.27 493.898 207.269C493.896 207.266 493.892 207.261 493.888 207.256C493.88 207.245 493.867 207.229 493.851 207.208C493.819 207.167 493.773 207.106 493.711 207.029C493.588 206.874 493.405 206.65 493.165 206.37C492.683 205.81 491.97 205.024 491.037 204.115C489.17 202.299 486.416 199.986 482.87 197.999Z" fill="#F7DBB6"/>
</g>
<g id="tennis_courts">
<path id="tennis_court1" d="M540 217.073L552 211.073L556.5 220.073L544.5 226.073L540 217.073Z" fill="#F48782" stroke="#F8C0B9" stroke-width="0.5"/>
<path id="tennis_court2" d="M562.5 253.573L551.5 232.073L561 227.073L572 248.573L562.5 253.573Z" fill="#F48782" stroke="#F8C0B9" stroke-width="0.5"/>
<path id="tennis_court3" d="M576 283.573L565 262.073L574.5 257.073L585.5 278.573L576 283.573Z" fill="#F48782" stroke="#F8C0B9" stroke-width="0.5"/>
<path id="tennis_court4" d="M588 277.573L577 256.073L586.5 251.073L597.5 272.573L588 277.573Z" fill="#F48782" stroke="#F8C0B9" stroke-width="0.5"/>
<path id="tennis_court5" d="M596 330.573L585 309.073L594.5 304.073L605.5 325.573L596 330.573Z" fill="#F48782" stroke="#F8C0B9" stroke-width="0.5"/>
<path id="tennis_court6" d="M608 324.573L597 303.073L606.5 298.073L617.5 319.573L608 324.573Z" fill="#F48782" stroke="#F8C0B9" stroke-width="0.5"/>
<path id="tennis_court7" d="M612 364.573L601 343.073L610.5 338.073L621.5 359.573L612 364.573Z" fill="#F48782" stroke="#F8C0B9" stroke-width="0.5"/>
<path id="tennis_court8" d="M625 357.573L614 336.073L623.5 331.073L634.5 352.573L625 357.573Z" fill="#F48782" stroke="#F8C0B9" stroke-width="0.5"/>
</g>
</g>
<g id="student_visitor_parking">
<path id="student_visitor_parking_wlot" d="M329 162.073V138.073L374 137.073L372.5 213.073L376 256.073H368V258.073H377L380 269.073H360L356 263.573V250.073H355V258.073L353 260.073H311L306 162.073H329Z" fill="#CACFD4"/>
<path id="stduent_visitor_parking_elot" d="M597 239.073C583.065 213.434 565.678 199.529 517.5 175.573L539.5 214.573L554.5 207.073L576 249.073L597 239.073Z" fill="#CACFD4"/>
</g>
<g id="grass_layers">
<path id="grass1" d="M110.5 421.573H105.5V434.573H110.5V421.573Z" fill="#9DD3AB" stroke="#7780B1" stroke-opacity="0.7"/>
<path id="grass2" d="M110.5 376.573H105.5V414.573H110.5V376.573Z" fill="#9DD3AB" stroke="#7780B1" stroke-opacity="0.7"/>
<path id="grass3" d="M112.5 410.573V376.573H115.5L125.5 393.573V397.573L114.5 411.573L112.5 410.573Z" fill="#9DD3AB" stroke="#7780B1" stroke-opacity="0.7"/>
<path id="Vector 3" d="M130.5 401.573H126.5L114.5 415.573L113.5 419.573V422.573L116.5 425.573H143.5L144.5 423.573V420.573L143.5 417.573L130.5 401.573Z" fill="#9DD3AB" stroke="#7780B1" stroke-opacity="0.7"/>
<path id="Vector 4" d="M118.5 374.573V371.573H138.5C140.5 371.573 143.7 371.773 140.5 372.573C137.3 373.373 132.5 380.906 130.5 384.573L127.5 388.573H126.5L118.5 374.573Z" fill="#9DD3AB" stroke="#7780B1" stroke-opacity="0.7"/>
<path id="Vector 5" d="M141.5 376.573H142.5L147.5 395.573C146.5 395.906 144.5 397.173 144.5 399.573C144.5 401.973 147.167 403.239 148.5 403.573V416.573L147.5 417.573L131.5 397.573V393.573C131.5 390.773 137.5 381.739 140.5 377.573L141.5 376.573Z" fill="#9DD3AB" stroke="#7780B1" stroke-opacity="0.7"/>
<path id="Vector 6" d="M151.5 403.073C151.5 405.873 153 413.573 154 417.073C154.429 418.573 161 405.573 161.5 402.573V400.073C161.5 397.673 160.833 395.406 160.5 394.573C157.5 390.406 150.9 381.173 148.5 377.573C146.1 373.973 146.167 376.739 146.5 378.573L150.5 395.073C151.5 395.073 153.5 396.373 153.5 399.573C153.5 402.073 151.5 402.073 151.5 403.073Z" fill="#9DD3AB" stroke="#7780B1" stroke-opacity="0.7"/>
<path id="Vector 7" d="M185.5 386.573H180.5V413.573H185.5V386.573Z" fill="#9DD3AB" stroke="#7780B1" stroke-opacity="0.7"/>
<path id="Vector 8" d="M185.5 355.573H180.5V378.573H185.5V355.573Z" fill="#9DD3AB" stroke="#7780B1" stroke-opacity="0.7"/>
<path id="Vector 9" d="M110.5 339.573H105.5V358.573H110.5V339.573Z" fill="#9DD3AB" stroke="#7780B1" stroke-opacity="0.7"/>
<path id="grass11" d="M101.5 358.573H93.5V319.573H101.5V358.573Z" fill="#9DD3AB" stroke="#7780B1" stroke-opacity="0.7"/>
<path id="Vector 11" d="M101.5 376.573H93.5V413.573H101.5V376.573Z" fill="#9DD3AB" stroke="#7780B1" stroke-opacity="0.7"/>
<path id="Vector 12" d="M110.5 438.573H105.5V453.573H110.5V438.573Z" fill="#9DD3AB" stroke="#7780B1" stroke-opacity="0.7"/>
<path id="Vector 13" d="M105.5 459.573H109.5V487.573H105.5V481.573H101.5V464.573H105.5V459.573Z" fill="#9DD3AB" stroke="#7780B1" stroke-opacity="0.7"/>
<path id="Vector 14" d="M65.5 453.573V450.573H60.5L57.5 453.573H65.5Z" fill="#9DD3AB" stroke="#7780B1" stroke-opacity="0.7"/>
<path id="Vector 15" d="M136.5 497.573H112.5V513.573H136.5V497.573Z" fill="#9DD3AB" stroke="#7780B1" stroke-opacity="0.7"/>
<path id="Vector 16" d="M136.5 515.573H112.5V553.573H136.5V515.573Z" fill="#9DD3AB" stroke="#7780B1" stroke-opacity="0.7"/>
<path id="Vector 17" d="M39.5 514.573H98.5V553.573H39.5V514.573Z" fill="#9DD3AB" stroke="#7780B1" stroke-opacity="0.7"/>
<path id="Vector 18" d="M37.5 532.573V514.573H34.5V532.573H37.5Z" fill="#9DD3AB" stroke="#7780B1" stroke-opacity="0.7"/>
<path id="Vector 19" d="M37.5 534.573H34.5V553.573H37.5V534.573Z" fill="#9DD3AB" stroke="#7780B1" stroke-opacity="0.7"/>
<path id="Vector 20" d="M37.5 555.573H34.5V579.573H37.5V555.573Z" fill="#9DD3AB" stroke="#7780B1" stroke-opacity="0.7"/>
<path id="Vector 21" d="M98.5 556.573H83.5V581.573H98.5V556.573Z" fill="#9DD3AB" stroke="#7780B1" stroke-opacity="0.7"/>
<path id="Vector 22" d="M51.5 555.573H39.5V581.573L33.5 584.573V587.573L35.5 590.573L36.5 594.573L38.5 608.573L39.5 613.573L44.5 624.573L56.5 637.573L68.5 643.573L72.5 644.573H89.5L93.5 643.573L140.5 619.573L130.5 606.573L96.5 623.573L89.5 608.573H82.5V615.573H51.5V555.573Z" fill="#9DD3AB" stroke="#7780B1" stroke-opacity="0.7"/>
<path id="Vector 23" d="M82.5 606.573V589.573L88.5 603.573V605.573L87.5 606.573H82.5Z" fill="#9DD3AB" stroke="#7780B1" stroke-opacity="0.7"/>
<path id="Vector 24" d="M136.5 555.573H131.5V603.573H136.5V555.573Z" fill="#9DD3AB" stroke="#7780B1" stroke-opacity="0.7"/>
<path id="Vector 25" d="M98.5 464.573H82.5V483.073H87V512.573H96.5V511.573H98.5V493.573H96.5V484.573H98.5V464.573Z" fill="#9DD3AB" stroke="#7780B1" stroke-opacity="0.7"/>
<path id="Vector 26" d="M110.5 289.573H105.5V313.573H110.5V289.573Z" fill="#9DD3AB" stroke="#7780B1" stroke-opacity="0.7"/>
<g id="Vector 27">
<path d="M171.5 389.573L173.5 386.573H178.5V413.573H177.5L171.5 400.573V389.573Z" fill="#9DD3AB"/>
<path d="M152.5 375.573V371.573H175.5L176.5 372.573V376.573L167.5 390.573L165.5 391.573H163.5L152.5 375.573Z" fill="#9DD3AB"/>
<path d="M171.5 389.573L173.5 386.573H178.5V413.573H177.5L171.5 400.573V389.573Z" stroke="#7780B1" stroke-opacity="0.7"/>
<path d="M152.5 375.573V371.573H175.5L176.5 372.573V376.573L167.5 390.573L165.5 391.573H163.5L152.5 375.573Z" stroke="#7780B1" stroke-opacity="0.7"/>
</g>
<path id="Vector 28" d="M177.5 424.573H161.5L159.5 421.573V417.573L166.5 401.573H168.5L169.5 403.573L177.5 422.573V424.573Z" fill="#9DD3AB" stroke="#7780B1" stroke-opacity="0.7"/>
<path id="Vector 29" d="M113.5 343.573H112.5V357.573H117.5L120.5 354.573V351.573L113.5 343.573Z" fill="#9DD3AB" stroke="#7780B1" stroke-opacity="0.7"/>
<path id="Vector 30" d="M131.5 362.573H118.5V360.573L121.5 356.573H124.5L131.5 360.573V362.573Z" fill="#9DD3AB" stroke="#7780B1" stroke-opacity="0.7"/>
<path id="Vector 31" d="M116.5 343.573V342.573H123.5V336.573L125.5 335.573L127.5 334.573H131.5L135.5 336.573V342.573H139.5V343.573L126.5 351.573H123.5L116.5 343.573Z" fill="#9DD3AB" stroke="#7780B1" stroke-opacity="0.7"/>
<path id="Vector 32" d="M149.5 350.573L148.5 351.573V362.573H152.5L156.5 358.573V355.573L152.5 350.573H149.5Z" fill="#9DD3AB" stroke="#7780B1" stroke-opacity="0.7"/>
<path id="Vector 33" d="M141.5 346.573H138.5L129.5 352.573L128.5 353.573V354.573L129.5 355.573H131.5L132.5 356.573H133.5L138.5 362.573H142.5V347.573L141.5 346.573Z" fill="#9DD3AB" stroke="#7780B1" stroke-opacity="0.7"/>
<path id="Vector 34" d="M155.5 342.573H149.5L150.5 345.573L157.5 352.573H162.5L164.5 350.573V346.573L162.5 343.573V339.573H155.5V342.573Z" fill="#9DD3AB" stroke="#7780B1" stroke-opacity="0.7"/>
<path id="Vector 35" d="M170.5 353.573L168.5 352.573H167.5V353.573H165.5L164.5 354.573H162.5L161.5 355.573H159.5L158.5 356.573V357.573L160.5 359.573V362.573H170.5V353.573Z" fill="#9DD3AB" stroke="#7780B1" stroke-opacity="0.7"/>
<path id="Vector 36" d="M165.5 336.573L166.5 335.573H169.5V339.573H174.5V348.573H172.5V347.573H167.5L165.5 344.573V336.573Z" fill="#9DD3AB" stroke="#7780B1" stroke-opacity="0.7"/>
<path id="Vector 37" d="M142.5 296.573L141.5 295.573L134.5 303.573V307.573L140.5 314.573H142.5V296.573Z" fill="#9DD3AB" stroke="#7780B1" stroke-opacity="0.7"/>
<path id="Vector 38" d="M114.5 289.573H112.5V313.573H116.5L128.5 304.573V303.573L114.5 289.573Z" fill="#9DD3AB" stroke="#7780B1" stroke-opacity="0.7"/>
<path id="Vector 39" d="M110.5 275.573H105.5V282.573H110.5V275.573Z" fill="#9DD3AB" stroke="#7780B1" stroke-opacity="0.7"/>
<path id="Vector 40" d="M210.5 250.573H190.5V257.573H210.5V250.573Z" fill="#9DD3AB" stroke="#7780B1" stroke-opacity="0.7"/>
<path id="Vector 41" d="M212.5 257.573V250.573H258.5L260.5 252.573H262.5L263.5 253.573H265.5V257.573H212.5Z" fill="#9DD3AB" stroke="#7780B1" stroke-opacity="0.7"/>
<path id="Vector 42" d="M269.5 257.573V253.573H271.5L272.5 252.573H274.5L276.5 250.573H298.5V251.573L292.5 257.573H269.5Z" fill="#9DD3AB" stroke="#7780B1" stroke-opacity="0.7"/>
<path id="Vector 43" d="M315.5 279.573H285.5V285.573H315.5V279.573Z" fill="#9DD3AB" stroke="#7780B1" stroke-opacity="0.7"/>
<path id="Vector 44" d="M282.5 279.573H272.5V281.573L276.5 285.573H282.5V279.573Z" fill="#9DD3AB" stroke="#7780B1" stroke-opacity="0.7"/>
<path id="Vector 45" d="M128.5 290.573H121.5V292.573L129.5 301.573H132.5L138.5 294.573V293.573L137.5 292.573H134.5V291.573H128.5V290.573Z" fill="#9DD3AB" stroke="#7780B1" stroke-opacity="0.7"/>
<path id="Vector 46" d="M110.5 319.573H105.5V334.573H108.5L110.5 333.573V319.573Z" fill="#9DD3AB" stroke="#7780B1" stroke-opacity="0.7"/>
<path id="Vector 47" d="M112.5 332.573V319.573L117.5 316.573L126.5 326.573L125.5 328.573H119.5V332.573L116.5 333.573H114.5L112.5 332.573Z" fill="#9DD3AB" stroke="#7780B1" stroke-opacity="0.7"/>
<g id="Vector 48">
<path d="M132.5 331.573L128.5 330.573V325.573L120.5 315.573L121.5 313.573L129.5 307.573H131.5L142.5 319.573V327.573H135.5V330.573L132.5 331.573Z" fill="#9DD3AB"/>
<path d="M129.5 275.573H112.5V283.573H114.5L120.5 287.573L126.5 288.573L131.5 289.573L136.5 290.573H140.5L142.5 289.573L140.5 286.573H138.5L136.5 285.573L130.5 280.573L129.5 277.573V275.573Z" fill="#9DD3AB"/>
<path d="M132.5 331.573L128.5 330.573V325.573L120.5 315.573L121.5 313.573L129.5 307.573H131.5L142.5 319.573V327.573H135.5V330.573L132.5 331.573Z" stroke="#7780B1" stroke-opacity="0.7"/>
<path d="M129.5 275.573H112.5V283.573H114.5L120.5 287.573L126.5 288.573L131.5 289.573L136.5 290.573H140.5L142.5 289.573L140.5 286.573H138.5L136.5 285.573L130.5 280.573L129.5 277.573V275.573Z" stroke="#7780B1" stroke-opacity="0.7"/>
</g>
<g id="Vector 49">
<path d="M165.5 289.573H149.5L151.5 286.573L155.5 285.573L160.5 281.573L162.5 277.573V275.573H178.5V281.573L165.5 289.573Z" fill="#9DD3AB"/>
<path d="M176.5 285.573H178.5V289.573H169.5L176.5 285.573Z" fill="#9DD3AB"/>
<path d="M165.5 289.573H149.5L151.5 286.573L155.5 285.573L160.5 281.573L162.5 277.573V275.573H178.5V281.573L165.5 289.573Z" stroke="#7780B1" stroke-opacity="0.7"/>
<path d="M176.5 285.573H178.5V289.573H169.5L176.5 285.573Z" stroke="#7780B1" stroke-opacity="0.7"/>
</g>
<path id="Vector 50" d="M105.5 263.573V251.573H122.5V252.573L112.5 263.573H105.5Z" fill="#9DD3AB" stroke="#7780B1" stroke-opacity="0.7"/>
<path id="Vector 51" d="M129.5 263.573H115.5V262.573L124.5 252.573L127.5 248.573H128.5L132.5 250.573L137.5 251.573V252.573L134.5 253.573L130.5 257.573L129.5 259.573V263.573Z" fill="#9DD3AB" stroke="#7780B1" stroke-opacity="0.7"/>
<path id="Vector 52" d="M118.5 236.573H105.5V250.573H123.5L126.5 247.573L125 245.573L123 243.573L119.5 238.573L118.5 236.573Z" fill="#9DD3AB" stroke="#7780B1" stroke-opacity="0.7"/>
<path id="Vector 53" d="M133 236.573H120.5L122.5 239.573V240.573L128 246.073L133.5 249.573H136.5L137.5 250.573H140.5V243.073L133 236.573Z" fill="#9DD3AB" stroke="#7780B1" stroke-opacity="0.7"/>
<path id="Vector 54" d="M162.5 263.573V261.073L159.5 255.573L153.5 252.573L157 250.573L161.5 249.573L164.5 250.573L166.5 251.573L173.5 257.073L178.5 262.573V263.573H162.5Z" fill="#9DD3AB" stroke="#7780B1" stroke-opacity="0.7"/>
<path id="Vector 55" d="M186.5 251.573H169.5L176 257.573L178.5 260.073L180.5 263.573H186.5V251.573Z" fill="#9DD3AB" stroke="#7780B1" stroke-opacity="0.7"/>
<path id="Vector 56" d="M186.5 249.573H168.5L165.5 247.573V245.573L169.5 239.573L170.5 236.573H186.5V249.573Z" fill="#9DD3AB" stroke="#7780B1" stroke-opacity="0.7"/>
<path id="Vector 57" d="M168.5 236.573H151.5V250.573H154.5L158.5 248.573L163 246.073L165.5 242.573L167.5 240.073L168.5 237.073" stroke="#7780B1" stroke-opacity="0.7"/>
<path id="Vector 58" d="M199.5 248.573H189.5V230.573H199.5V248.573Z" fill="#9DD3AB" stroke="#7780B1" stroke-opacity="0.7"/>
<path id="Vector 59" d="M199.5 221.573V228.573H169.5V209.573H173.5V221.573H199.5Z" fill="#9DD3AB" stroke="#7780B1" stroke-opacity="0.7"/>
<path id="Vector 60" d="M173.5 205.573H169.5V196.573H173.5V205.573Z" fill="#9DD3AB" stroke="#7780B1" stroke-opacity="0.7"/>
<path id="Vector 61" d="M179.5 215.573V209.573H181.5V212.573H198.5V215.573H179.5Z" fill="#9DD3AB" stroke="#7780B1" stroke-opacity="0.7"/>
<path id="Vector 62" d="M209.5 206.573H204.5V203.573L203.5 202.573V199.573L202.5 198.573L204.5 196.573H209.5V206.573Z" fill="#9DD3AB" stroke="#7780B1" stroke-opacity="0.7"/>
<path id="Vector 63" d="M209.5 209.573H205.5V248.573H210.5V240.573H209.5V209.573Z" fill="#9DD3AB" stroke="#7780B1" stroke-opacity="0.7"/>
<path id="Vector 64" d="M206.5 191.573H197.5V178.573H201.5V162.573H185.5V164.573H182.5V162.573H169.5V147.573L171.5 146.573H191.5V145.573H206.5V191.573Z" fill="#9DD3AB" stroke="#7780B1" stroke-opacity="0.7"/>
<path id="Vector 65" d="M209.5 186.573H212.5H231.5V182.573L230.5 181.573V173.573L229.5 172.573V167.573H225.5V168.573H222.5L221.5 167.573H218.5L217.5 168.573H214.5L213.5 167.573H209.5V171.573L211.5 172.573V175.573H209.5V178.573L211.5 179.573V182.573L210.5 183.573H209.5V186.573Z" fill="#9DD3AB" stroke="#7780B1" stroke-opacity="0.7"/>
<path id="Vector 66" d="M248.5 167.573H233.5V170.573L234.5 171.573V179.573L235.5 180.573V188.573H244.5V170.573H248.5V167.573Z" fill="#9DD3AB" stroke="#7780B1" stroke-opacity="0.7"/>
<path id="Vector 67" d="M270.5 167.573H260.5V170.573H270.5V167.573Z" fill="#9DD3AB" stroke="#7780B1" stroke-opacity="0.7"/>
<path id="Vector 68" d="M297.5 167.573H286.5V194.573H295.5L296.5 195.573V199.573H297.5V167.573Z" fill="#9DD3AB" stroke="#7780B1" stroke-opacity="0.7"/>
<path id="Vector 69" d="M285.5 249.573V246.573H275.5V249.573H285.5Z" fill="#9DD3AB" stroke="#7780B1" stroke-opacity="0.7"/>
<path id="Vector 70" d="M259.5 249.573V246.573H248.5V249.573H259.5Z" fill="#9DD3AB" stroke="#7780B1" stroke-opacity="0.7"/>
<path id="Vector 71" d="M212.5 248.573V246.573H227.5V233.573H231.5V248.573H212.5Z" fill="#9DD3AB" stroke="#7780B1" stroke-opacity="0.7"/>
<path id="Vector 72" d="M162.5 151.573V147.573H153.5L151.5 148.573H134.5L132.5 149.573H114.5L113.5 150.573H95.5L94.5 151.573H83.5V166.573L84.5 167.573V169.573H86.5V165.573H161.5H164.5V158.573L163.5 157.573V152.573L162.5 151.573Z" fill="#9DD3AB" stroke="#7780B1" stroke-opacity="0.7"/>
<path id="Vector 73" d="M77.5 164.573V152.573H55.5L54.5 153.573V155.573H55.5V164.573H77.5Z" fill="#9DD3AB" stroke="#7780B1" stroke-opacity="0.7"/>
<path id="Vector 74" d="M77.5 169.573V166.573H72.5V171.573H75.5L77.5 169.573Z" fill="#9DD3AB" stroke="#7780B1" stroke-opacity="0.7"/>
<path id="Vector 75" d="M60.5 170.573L62.5 172.573H70.5V167.573H58.5V170.573H60.5Z" fill="#9DD3AB" stroke="#7780B1" stroke-opacity="0.7"/>
<path id="Vector 76" d="M86.5 179.573H92.5H93.5V217.573H88.5V199.573L86.5 197.573V179.573Z" fill="#9DD3AB" stroke="#7780B1" stroke-opacity="0.7"/>
<path id="Vector 77" d="M120.5 217.573H115.5V223.573H88.5V240.573L87.5 241.573V249.573H102.5V224.573H120.5V217.573Z" fill="#9DD3AB" stroke="#7780B1" stroke-opacity="0.7"/>
<path id="Vector 78" d="M84.5 249.573V242.573H76.5V249.573H84.5Z" fill="#9DD3AB" stroke="#7780B1" stroke-opacity="0.7"/>
<path id="Vector 79" d="M40.5 256.573V240.573H73.5V258.573H42.5L40.5 256.573Z" fill="#9DD3AB" stroke="#7780B1" stroke-opacity="0.7"/>
<path id="Vector 80" d="M37.5 260.573V239.573H34.5V262.573H35.5L37.5 260.573Z" fill="#9DD3AB" stroke="#7780B1" stroke-opacity="0.7"/>
<path id="Vector 81" d="M35.5 275.573L34.5 276.573V346.573L37.5 349.573V361.573L39.5 363.573H82.5L84.5 361.573V358.573L85.5 357.573H89.5V355.573H77.5V323.573H67.5L65.5 321.573V313.573H67.5V282.573L65.5 280.573H41.5L40.5 279.573L35.5 275.573Z" fill="#9DD3AB" stroke="#7780B1" stroke-opacity="0.7"/>
<path id="Vector 82" d="M82.5 371.573H39.5L37.5 373.573V385.573L34.5 388.573V458.573H35.5L41.5 453.573H55.5L60.5 448.573H65.5V413.573L67.5 411.573H89.5V377.573H85.5L84.5 376.573V373.573L82.5 371.573Z" fill="#9DD3AB" stroke="#7780B1" stroke-opacity="0.7"/>
<path id="Vector 83" d="M68.5 453.573V448.573H91.5V460.573H83.5L82.5 459.573V455.573L80.5 453.573H68.5Z" fill="#9DD3AB" stroke="#7780B1" stroke-opacity="0.7"/>
<path id="Vector 84" d="M34.5 506.073V469.073H41V506.073H34.5Z" fill="#9DD3AB" stroke="#7780B1" stroke-opacity="0.7"/>
<path id="Vector 85" d="M79.5 555.573H74.5V581.573H79.5V555.573Z" fill="#9DD3AB" stroke="#7780B1" stroke-opacity="0.7"/>
<path id="Vector 86" d="M138.5 607.573V589.573H140.5V608.573L144.5 612.573H151.5L241.5 565.573V551.573L253.5 548.573V551.573L260.5 557.573L258.5 559.573L151.5 614.573H143.5L139.5 610.573L138.5 607.573Z" fill="#9DD3AB" stroke="#7780B1" stroke-opacity="0.7"/>
<path id="Vector 87" d="M113.5 462.573H119.5H122.5V470.573H114.5L113.5 469.573V462.573Z" fill="#9DD3AB" stroke="#7780B1" stroke-opacity="0.7"/>
<path id="Vector 88" d="M144.5 428.573V431.573H122.5V452.573H119.5V458.573H113.5V434.573L116.5 432.573L117.5 433.573H120.5V432.573L121.5 431.573V429.573L122.5 428.573H144.5Z" fill="#9DD3AB" stroke="#7780B1" stroke-opacity="0.7"/>
<path id="Vector 89" d="M161.5 428.573V431.573H183.5V441.573H187.5V429.573L185.5 427.573H162.5L161.5 428.573Z" fill="#9DD3AB" stroke="#7780B1" stroke-opacity="0.7"/>
<path id="Vector 90" d="M187.5 442.573H185.5V455.573H187.5V442.573Z" fill="#9DD3AB" stroke="#7780B1" stroke-opacity="0.7"/>
<path id="Vector 91" d="M179.5 471.573V469.573V468.573H186.5V457.573H187.5V471.573H179.5Z" fill="#9DD3AB" stroke="#7780B1" stroke-opacity="0.7"/>
<path id="Vector 92" d="M206.5 453.573V451.573H214.5V448.573H217.5V453.573H248.5V448.573H252.5V451.573H260.5V452.573L259.5 454.573L257.5 455.573H208.5L206.5 453.573Z" fill="#9DD3AB" stroke="#7780B1" stroke-opacity="0.7"/>
<path id="Vector 93" d="M256.5 408.573H251.5V394.573H260.5V413.573H256.5V408.573Z" fill="#9DD3AB" stroke="#7780B1" stroke-opacity="0.7"/>
<path id="Vector 94" d="M260.5 386.573H251.5V391.573H260.5V386.573Z" fill="#9DD3AB" stroke="#7780B1" stroke-opacity="0.7"/>
<path id="Vector 95" d="M254.5 372.573V370.573H260.5V372.573H254.5Z" fill="#9DD3AB" stroke="#7780B1" stroke-opacity="0.7"/>
<path id="Vector 96" d="M254.5 356.573V349.573H260.5V356.573H254.5Z" fill="#9DD3AB" stroke="#7780B1" stroke-opacity="0.7"/>
<path id="Vector 97" d="M274.5 315.573V291.573H272.5V315.573H274.5Z" fill="#9DD3AB" stroke="#7780B1" stroke-opacity="0.7"/>
<path id="Vector 98" d="M92.5 286.573H69.5V282.573L71.5 280.573H89.5L92.5 282.573V286.573Z" fill="#9DD3AB" stroke="#7780B1" stroke-opacity="0.7"/>
<path id="Vector 99" d="M389.5 195.573L388.5 151.573L392 154.073L401.5 157.573L414.5 158.573L419.5 160.573L410.5 168.073L402.5 177.073L390.5 195.573H389.5Z" fill="#9DD3AB" stroke="#7780B1" stroke-opacity="0.7"/>
<path id="Vector 100" d="M422.5 158.573V152.573L438.5 141.573H445.5L444.5 145.573L442.5 149.573L434 152.573L424.5 158.573H422.5Z" fill="#9DD3AB" stroke="#7780B1" stroke-opacity="0.7"/>
<path id="Vector 101" d="M392.5 146.573V143.573L410.5 135.573L422.5 130.573L429.5 133.573L432.5 139.573L424.5 146.073L419 150.573L418 153.073L400 152.073L392.5 146.573Z" fill="#9DD3AB" stroke="#7780B1" stroke-opacity="0.7"/>
<path id="Vector 102" d="M436.5 137.573L433.5 132.573L473.5 114.573L478 112.573L490 134.073L501.5 155.573L494 154.073L486.5 151.573L485 152.573L484.5 155.573L482.5 161.573L477.5 160.573L479 154.573L479.5 150.573L473 148.573L466.5 147.573H448.5L450.5 137.573H436.5Z" fill="#9DD3AB" stroke="#7780B1" stroke-opacity="0.7"/>
<path id="Vector 103" d="M516.5 155.573L490.5 106.573L507 99.0725L486.5 54.0725L463.5 6.57254L433.5 20.5725L431.5 13.5725L446 6.57254L461.5 0.57254L464.5 3.07254L466.5 6.57254L498 69.5725L514.5 104.573L520.5 123.573L521.5 143.573L516.5 155.573Z" fill="#9DD3AB" stroke="#7780B1" stroke-opacity="0.7"/>
<path id="Vector 104" d="M418.5 22.5725L421.5 25.5725L383.5 43.0725L401 83.0725L419.5 121.573L404.5 128.073L388 135.573L389.5 67.5725L379.5 43.5725L378.5 40.5725L399 30.5725L418.5 22.5725Z" fill="#9DD3AB" stroke="#7780B1" stroke-opacity="0.7"/>
<g id="Vector 105">
<path d="M586.511 244.572C586.507 244.572 586.503 244.573 586.5 244.573C586.5 244.563 586.504 244.563 586.511 244.572C587.019 244.517 594.029 241.225 597.5 239.573L616.5 277.573L615.5 280.573L613.5 281.573H609.5L601.5 275.573C593.687 260.924 586.828 244.94 586.511 244.572Z" fill="#9DD3AB"/>
<path d="M586.5 244.573C586.9 244.573 594 241.239 597.5 239.573L616.5 277.573L615.5 280.573L613.5 281.573H609.5L601.5 275.573C593.5 260.573 586.5 244.173 586.5 244.573Z" stroke="#7780B1" stroke-opacity="0.7"/>
</g>
<path id="Vector 106" d="M657.5 349.573L653 347.573L636.5 318.573L620.5 288.073L620 287.573H615.5L614.5 290.073V291.573L635.5 334.573L639 334.073L641.5 332.573L650.5 348.573L646 353.073L640.5 356.573H638.5L625 363.073L611.5 370.573L623.5 394.573L657.5 379.573L683.5 363.573L680.5 359.573L674 355.073L669.5 353.573L662.5 351.573L657.5 349.573Z" fill="#9DD3AB" stroke="#7780B1" stroke-opacity="0.7"/>
<path id="Vector 107" d="M7.5 672.573H0.5V409.573L4 412.573L8 417.573L10.5 422.573L11.5 425.573L12.5 429.573V456.573L11.5 457.573V509.573L10.5 510.573V562.573L9.5 563.573V615.573L8.5 616.573V668.573L7.5 669.573V672.573Z" fill="#9DD3AB" stroke="#7780B1" stroke-opacity="0.7"/>
<path id="Vector 108" d="M0.5 394.573H8.5L11 392.573L12.5 389.573V347.573L10.5 344.573L7.5 342.573H2.5L0.5 343.573V394.42" stroke="#7780B1" stroke-opacity="0.7"/>
<path id="Vector 109" d="M7.5 330.573H0.5V233.573H7.5L10.5 235.073L12.5 238.573V324.573L11 328.073L7.5 330.573Z" fill="#9DD3AB" stroke="#7780B1" stroke-opacity="0.7"/>
<path id="Vector 110" d="M51.5 157.573V161.573H43.5V215.573H52.5L57.5 221.573H42.5L41.5 219.573L38.5 217.073L34.5 216.573V154.573H39.5L40.5 153.573H50.5V155.573L51.5 157.573Z" fill="#9DD3AB" stroke="#7780B1" stroke-opacity="0.7"/>
<path id="Vector 111" d="M34.5 227.573V218.573H37.5L40.5 221.573V224.573L37.5 227.573H34.5Z" fill="#9DD3AB" stroke="#7780B1" stroke-opacity="0.7"/>
<path id="Vector 112" d="M34.5 236.573V230.573L38.5 229.073L41 226.573L43.5 223.573H59.5L63.5 225.573L66.5 226.573V229.573H41.5V236.573H34.5Z" fill="#9DD3AB" stroke="#7780B1" stroke-opacity="0.7"/>
</g>
<g id="buildings">
<path id="building_rhs" d="M98 379.073H78V380.073H77V414.073H78V415.073H79V416.073H81V421.073H60V449.073H101L101.036 447.073H102V422.073H101.036V421.073H96V416.073H98V415.073H99V380.073H98V379.073Z" fill="#B6394F"/>
<path id="building_lrc" d="M145 431.073H122V452.073H119V467.073H122V470.073H131V479.073H177V470.073H184V469.073H187V454.073H184V431.073H160C159.667 428.906 160 425.073 152.5 425.073C145 425.073 145.333 428.906 145 431.073Z" fill="#B6394F"/>
<path id="building_rhn" d="M102 286.073H60V314.073H81V319.073H77V356.073H100V319.073H97V314.073H102V286.073Z" fill="#B6394F"/>
<path id="building_moh" d="M75 555.073H53V614.073H80V586.073H75V555.073Z" fill="#B6394F"/>
<path id="building_nas" d="M131 603.073V556.073H108V557.073H106V558.073H105V572.073H107V589.073L89 598.573L97 619.073L131 603.073Z" fill="#B6394F"/>
<path id="building_rep" d="M236 478.073H211V489.073H236V478.073Z" fill="#B6394F"/>
<path id="building_ops_vec" d="M256 478.073H239.5V489.573H242V552.073L256 547.573V478.073Z" fill="#B6394F"/>
<path id="building_stc_sog_bus" d="M221 353.073H195V381.073H221V386.073H219V409.073H222V418.073H215V416.073H206V421.073H210V424.073H208V430.073H210V437.073H208V444.073H210V445.073H206V452.073H215V449.073H217V454.073H249V449.073H252V452.073H261V445.073H256V443.073H258V424.073H256V421.073H261V415.073H252V416.073H249V409.073H252V386.073H246V373.073H255V349.073H245V341.073H221V353.073Z" fill="#B6394F"/>
<path id="building_cic" d="M181 297.073H153V308.073H152V318.073H153V323.073H181V339.073H187V337.073H205V333.073H249V334.073H254V331.073H261V292.073H254V289.073H248V290.073H245V285.073H232V288.073H225V290.073H211V288.073H202V297.073H186V296.073H181V297.073Z" fill="#B6394F"/>
<path id="building_uns" d="M280 376.073H277V349.073L293 333.073H310V331.073H322V336.073H324V344.073H298L288 354.073V378.073H280V376.073Z" fill="#B6394F"/>
<path id="building_cdc" d="M355 322.073H338V309.073H336V291.073H341V293.073H354V291.073H359V300.073H385V322.073H372V325.073H362V327.073H355V322.073Z" fill="#B6394F"/>
<path id="building_hsp" d="M281 284.073H278V289.073L276 292.073H274V315.073H272V323.073H285V327.073H288V323.073H313V327.073H321V321.073H332V308.073H327V293.073H316V285.073H281V284.073Z" fill="#B6394F"/>
<path id="building_pan" d="M400 335.073L390 341.073L413 384.073L423 378.073L400 335.073Z" fill="#B6394F"/>
<path id="building_tec" d="M86 170.073V158.073H94V157.073H113V156.073H142V155.073H152V154.073H162V167.073H158V169.073H146V167.073H129V170.073H117V169.073H104V170.073H86Z" fill="#B6394F"/>
<path id="building_sts" d="M85 200.073H70V230.073H67V229.073H41V237.073H42V240.073H41V247.073H77C81.0707 246.627 82.6534 245.556 84 242.073V240.073H85V200.073Z" fill="#B6394F"/>
<path id="building_ffa" d="M228 170.073H212V247.073H228V170.073Z" fill="#B6394F"/>
<path id="building_pas" d="M464 6.07254L383 43.0725L426 136.073L507 99.0725L464 6.07254Z" fill="#B6394F"/>
<path id="building_cos_shw" d="M64 158.073H76V168.073H61V169.073H56L54 170.073V187.073H53V199.073H55V209.073H53V216.073H43V206.073H42V194.073H43V190.073H42V175.073H43V172.073H42V161.073H55V159.073H64V158.073Z" fill="#B6394F" stroke="black" stroke-opacity="0.06"/>
<path id="building_pac_act" d="M120 224.073H94V234.073H95V247.073H103V233.073H133V238.073L138 243.073H141V240.073H151V243.073H154L159 238.073V233.073H189V247.073H197V234.073H198V224.073H171V194.073H186V190.073H198V179.073H202V162.073H185V164.073H183V162.073H175V179.073H93V191.073H92V201.073H93V218.073H120V224.073Z" fill="#B6394F" stroke="black" stroke-opacity="0.06"/>
<path id="building_luc" d="M296 170.073H244V186.073H262V195.073H296V170.073Z" fill="#B6394F" stroke="black" stroke-opacity="0.06"/>
<path id="building_mak" d="M297 138.073H329V162.073H299V150.073H308V148.073H297V138.073Z" fill="#B6394F" stroke="black" stroke-opacity="0.06"/>
<path id="building_luc_cst" d="M279 197.073H262V209.073H250V207.073H244V247.073H260V250.073H261V251.073H266V250.073H269V251.073H274V250.073H275V247.073H292V223.073H297V209.073H279V197.073Z" fill="#B6394F" stroke="black" stroke-opacity="0.06"/>
<path id="building_soc" d="M277 488.073V474.073H281V488.073H277Z" fill="#B6394F"/>
</g>
<g id="nodes">
<circle id="node-3" cx="36" cy="269.073" r="2" fill="#D9D9D9"/>
<circle id="node-2" cx="144" cy="271.073" r="2" fill="#D9D9D9"/>
<circle id="node-1" cx="148" cy="336.073" r="2" fill="#D9D9D9"/>
</g>
</g>
</svg>
