<svg width="25" height="32" viewBox="0 0 25 32" fill="none" xmlns="http://www.w3.org/2000/svg">
<rect y="4.80481" width="25" height="24.024" fill="black"/>
<path d="M11.2929 29.5526V4.02703H12.9282V29.5526H11.2929ZM15.6303 12.4524C15.5505 11.6481 15.2082 11.0233 14.6033 10.5779C13.9984 10.1325 13.1774 9.90986 12.1405 9.90986C11.4358 9.90986 10.8409 10.0096 10.3557 10.209C9.87041 10.4018 9.49816 10.671 9.23892 11.0166C8.98632 11.3623 8.86002 11.7545 8.86002 12.1932C8.84673 12.5588 8.92317 12.8779 9.08936 13.1504C9.26218 13.4229 9.49816 13.6589 9.79729 13.8583C10.0964 14.0511 10.4421 14.2206 10.8343 14.3669C11.2265 14.5065 11.6452 14.6261 12.0906 14.7258L13.9252 15.1645C14.816 15.364 15.6336 15.6298 16.3781 15.9622C17.1226 16.2946 17.7674 16.7034 18.3124 17.1886C18.8575 17.6739 19.2796 18.2455 19.5788 18.9036C19.8845 19.5617 20.0407 20.3162 20.0474 21.167C20.0407 22.4167 19.7217 23.5002 19.0902 24.4175C18.4653 25.3282 17.5613 26.0361 16.3781 26.5413C15.2015 27.0399 13.7823 27.2892 12.1205 27.2892C10.472 27.2892 9.03618 27.0366 7.81308 26.5314C6.59663 26.0262 5.64607 25.2784 4.9614 24.2879C4.28338 23.2908 3.92775 22.0578 3.89451 20.5887H8.07232C8.11885 21.2734 8.31495 21.845 8.66061 22.3037C9.01291 22.7557 9.48154 23.0981 10.0665 23.3307C10.6581 23.5567 11.3262 23.6697 12.0707 23.6697C12.8019 23.6697 13.4367 23.5634 13.9751 23.3506C14.5202 23.1379 14.9423 22.8421 15.2414 22.4632C15.5405 22.0843 15.6901 21.6489 15.6901 21.157C15.6901 20.6984 15.5538 20.3128 15.2813 20.0004C15.0154 19.688 14.6232 19.4221 14.1047 19.2028C13.5929 18.9834 12.9647 18.784 12.2202 18.6045L9.99671 18.0461C8.27506 17.6273 6.9157 16.9726 5.91861 16.0819C4.92152 15.1911 4.42629 13.9913 4.43294 12.4824C4.42629 11.246 4.75533 10.1658 5.42006 9.24181C6.09144 8.31784 7.01208 7.59661 8.182 7.07813C9.35192 6.55964 10.6814 6.3004 12.1704 6.3004C13.6859 6.3004 15.0088 6.55964 16.1388 7.07813C17.2755 7.59661 18.1596 8.31784 18.791 9.24181C19.4225 10.1658 19.7483 11.236 19.7682 12.4524H15.6303Z" fill="#F5F5F5"/>
</svg>
